<svg width="51" height="51" viewBox="0 0 51 51" fill="none" xmlns="http://www.w3.org/2000/svg">
<g clip-path="url(#clip0_667_5806)">
<path d="M51 25.8006C51 11.8825 39.7181 0.600586 25.8 0.600586C11.882 0.600586 0.600037 11.8825 0.600037 25.8006C0.600037 33.0165 3.61599 39.4953 8.46387 44.0974C9.15642 42.4442 10.6309 39.6516 13.5351 37.2612C15.9926 35.2059 18.4724 34.2899 19.9915 33.8431C20.9298 34.357 22.6054 35.0719 24.7724 35.2059C27.7883 35.407 30.0894 34.357 31.0947 33.8431C32.6139 34.2899 35.049 35.2506 37.4841 37.2612C40.6117 39.8751 42.0639 42.891 42.7117 44.4995C47.8053 39.875 51 33.2176 51 25.8006ZM25.5096 32.8155C20.1926 32.8155 15.8809 28.5038 15.8809 23.1868C15.8809 17.8697 20.1926 13.558 25.5096 13.558C30.8266 13.558 35.1383 17.8697 35.1383 23.1868C35.1383 28.5038 30.8266 32.8155 25.5096 32.8155Z" fill="#BAB9BA"/>
<path d="M25.5096 32.8151C30.8274 32.8151 35.1384 28.5041 35.1384 23.1863C35.1384 17.8685 30.8274 13.5576 25.5096 13.5576C20.1918 13.5576 15.8809 17.8685 15.8809 23.1863C15.8809 28.5041 20.1918 32.8151 25.5096 32.8151Z" fill="#F4F4F4"/>
<path d="M37.4841 37.2394C35.049 35.2064 32.6139 34.2681 31.0947 33.8213C30.0894 34.3575 27.8107 35.3851 24.7724 35.1841C22.583 35.05 20.9298 34.3128 19.9915 33.8213C18.4724 34.2681 15.9926 35.2064 13.5351 37.2394C10.6309 39.6521 9.17876 42.4224 8.46387 44.0755C12.9766 48.3426 19.0756 50.9787 25.8 50.9787C32.3011 50.9787 38.2436 48.5213 42.7117 44.4553C42.0862 42.8915 40.6117 39.8532 37.4841 37.2394Z" fill="#F4F4F4"/>
</g>
<defs>
<clipPath id="clip0_667_5806">
<rect width="50.4" height="50.4" fill="white" transform="translate(0.599976 0.599609)"/>
</clipPath>
</defs>
</svg>
