<?xml version="1.0" encoding="utf-8"?>
<!-- Generator: Adobe Illustrator 25.0.0, SVG Export Plug-In . SVG Version: 6.00 Build 0)  -->
<svg version="1.1" id="Layer_1" xmlns="http://www.w3.org/2000/svg" xmlns:xlink="http://www.w3.org/1999/xlink" x="0px" y="0px"
	 viewBox="0 0 439.66 416.68" style="enable-background:new 0 0 439.66 416.68;" xml:space="preserve">
<g>
	<path d="M262.29,334.36c0-13.33,0-26.42,0-39.5c0-1.12,0.06-2.25-0.03-3.37c-0.28-3.49-2.81-5.99-5.98-5.97
		c-3.21,0.02-5.79,2.51-5.92,6.01c-0.14,3.99-0.04,7.98-0.04,11.97c0,10.21,0,20.43,0,30.91c-18.43,0-36.68,0-55.39,0
		c0-1.31,0-2.63,0-3.96c0-12.47,0.01-24.94-0.01-37.41c-0.01-4.68-2.27-7.49-5.94-7.52c-3.66-0.04-6.01,2.82-6.02,7.45
		c-0.02,13.71-0.01,27.42-0.01,41.46c-5.55,0-11,0.36-16.37-0.13c-3.67-0.33-5.6-3.59-5.63-8.11c-0.07-9.85-0.03-19.7-0.03-29.55
		c0-5.61,0.1-11.23-0.02-16.83c-0.19-8.52,3.62-14.83,10.51-19.45c8.06-5.41,17.29-7.57,26.65-9.12
		c21.45-3.55,42.78-2.91,63.61,3.57c5.66,1.76,11,5.17,15.86,8.69c4.6,3.34,6.7,8.62,6.72,14.42c0.07,16.21,0.11,32.42,0.02,48.63
		c-0.03,5.31-2.93,8.03-8.17,8.12c-4.11,0.07-8.23,0.01-12.34-0.01C263.4,334.66,263.05,334.52,262.29,334.36z"/>
	<path d="M327.47,282.76c-10.5,0-20.55,0-30.89,0c0.03-29.56-20.7-37.73-44.84-42.95c7.93-11.21,11.17-23.6,10.48-37.98
		c8.59-1.35,17.09-3.14,25.67-3.93c16.39-1.5,32.62-0.03,48.53,4.29c3.7,1,7.37,2.37,10.8,4.07c9.69,4.81,14.72,12.42,14.46,23.62
		c-0.33,14.33-0.07,28.67-0.09,43.01c-0.01,7.52-2.58,10.04-10.14,10.05c-3.84,0.01-7.68,0-12,0c0-1.66,0-2.98,0-4.31
		c0-12.47,0.01-24.94-0.01-37.4c-0.01-4.72-2.23-7.48-5.92-7.5c-3.67-0.02-6.03,2.82-6.04,7.46c-0.03,12.47-0.01,24.94-0.01,37.4
		C327.47,279.92,327.47,281.25,327.47,282.76z"/>
	<path d="M182.11,202.19c1.02,6.95,1.36,13.62,3.11,19.89c1.7,6.12,4.84,11.83,7.31,17.66c-5.34,1.59-11.4,2.77-16.89,5.21
		c-5.62,2.5-11.14,5.67-15.88,9.57c-7.04,5.78-10.53,13.75-10.77,22.99c-0.04,1.49-0.12,2.99-0.22,4.48
		c-0.01,0.22-0.23,0.43-0.43,0.79c-9.97,0-20.03,0-30.57,0c0-1.48,0-2.81,0-4.13c0-11.98,0-23.95,0-35.93c0-0.75,0.02-1.5-0.01-2.25
		c-0.17-4.04-2.59-6.74-6.02-6.75c-3.49,0-5.91,2.64-5.93,6.73c-0.05,12.6-0.02,25.2-0.02,37.8c0,1.36,0,2.72,0,4.34
		c-5.63,0-11.09,0.41-16.45-0.14c-3.88-0.39-5.67-3.61-5.69-8.46c-0.05-12.47-0.02-24.95-0.02-37.42c0-2,0.12-4-0.02-5.99
		c-0.88-12.61,5.48-20.67,16.5-25.29c15.56-6.53,32.03-8.13,48.74-7.84C160.35,197.66,171.64,199.32,182.11,202.19z"/>
	<path d="M174.73,188.07c11.79-18.98,14.52-38.3,3.54-59c29.6-9.79,58.92-9.42,88.72-0.13c-10.96,20.51-8.44,39.84,3.48,59.04
		c-3.11,0.75-6.15,1.61-9.24,2.12c-0.63,0.1-1.85-1.01-2.18-1.81c-10.99-27-45.92-27.35-61.52-14.96c-5,3.97-8.8,8.8-11.15,14.7
		c-0.74,1.85-1.6,2.56-3.59,1.99C180.2,189.29,177.54,188.74,174.73,188.07z"/>
	<path d="M327.88,154.99c-0.55,10.61-3.37,20.24-10.74,28.08c-10.45,11.12-25.89,10.8-35.55-1.02c-9.4-11.5-11.87-24.82-7.78-38.99
		c2.87-9.94,10.32-15.14,20.36-16.89c15.37-2.68,28.36,4.57,32.05,18.18C327.15,147.79,327.35,151.44,327.88,154.99z"/>
	<path d="M117.7,158.02c0.05-26.08,19.36-38.76,40.29-29.89c7.11,3.01,11.8,8.33,13.7,15.76c3.5,13.73,1.16,26.51-7.66,37.69
		c-9.76,12.35-25.72,12.76-36.3,1.12C120.5,174.74,117.77,165.09,117.7,158.02z"/>
	<path d="M250.34,82.33c-0.07,6.11-2.33,14.66-7.79,22.16c-10.78,14.8-29.22,14.86-39.86-0.04c-7.59-10.63-9.64-22.6-6.58-35.19
		c3.3-13.55,15.92-20.97,30.99-18.78C242.27,52.69,250.36,62.7,250.34,82.33z"/>
	<path d="M250.53,206.14c-0.38,11.88-3.47,21.4-10.96,29.12c-9.9,10.2-24.05,10.43-33.76,0.06c-10.84-11.59-13.75-25.49-8.93-40.54
		c3.84-12,14.52-18.11,28.28-17.2c12.44,0.82,21.55,8.47,24.29,20.61C250.13,201.2,250.29,204.33,250.53,206.14z"/>
	<path d="M79.09,348.8c-6.1,1.16-12.2,2.32-18.31,3.48c-4.35,0.83-7.45-0.82-8.15-4.36c-0.73-3.71,1.3-6.44,5.62-7.29
		c12.58-2.47,25.16-4.93,37.76-7.3c6.2-1.17,9.35,2.06,8.16,8.31c-2.36,12.48-4.8,24.94-7.24,37.4c-0.89,4.56-3.66,6.67-7.46,5.83
		c-3.49-0.76-5.04-3.84-4.19-8.26c1.16-6.1,2.31-12.2,3.46-18.3c-0.53-0.46-1.06-0.92-1.59-1.38c-0.6,1.24-0.92,2.76-1.84,3.68
		c-12.01,12.14-24.11,24.2-36.19,36.26c-0.97,0.96-1.92,2-3.07,2.71c-2.53,1.58-5.08,1.28-7.19-0.77c-2.23-2.17-2.56-4.81-0.86-7.48
		c0.66-1.03,1.61-1.89,2.49-2.77C52.66,376.4,64.81,364.23,77,352.08c0.86-0.86,1.9-1.54,2.86-2.3
		C79.6,349.45,79.35,349.13,79.09,348.8z"/>
	<path d="M365.74,349.42c0.92,0.96,1.83,1.95,2.77,2.89c11.98,11.99,23.97,23.98,35.96,35.97c0.79,0.79,1.63,1.56,2.31,2.44
		c2.08,2.7,1.9,5.91-0.38,8.12c-2.28,2.2-5.46,2.27-8.13,0.12c-0.77-0.62-1.45-1.37-2.15-2.07c-11.99-11.99-23.99-23.97-35.94-35.98
		c-0.95-0.96-1.65-2.17-2.46-3.27c-0.39,0.23-0.79,0.45-1.18,0.68c0.88,4.74,1.74,9.49,2.63,14.23c0.32,1.71,0.75,3.41,1.02,5.13
		c0.55,3.54-1.29,6.49-4.4,7.19c-3.45,0.78-6.56-1.04-7.29-4.7c-2.62-13.19-5.2-26.38-7.55-39.62c-0.92-5.16,2.27-8.23,7.5-7.29
		c13.11,2.36,26.18,4.91,39.25,7.5c3.73,0.74,5.58,3.66,4.91,7.14c-0.64,3.29-3.67,5.23-7.4,4.55c-6.35-1.17-12.69-2.44-19.03-3.68
		C366.03,348.98,365.88,349.2,365.74,349.42z"/>
	<path d="M80.59,79.5c-1.24-0.62-2.75-0.97-3.69-1.89c-12.14-12.02-24.19-24.11-36.26-36.2c-0.79-0.79-1.64-1.55-2.3-2.45
		c-1.97-2.68-1.91-5.43,0.39-7.8c2.3-2.37,5.06-2.53,7.78-0.63c1.01,0.71,1.86,1.66,2.74,2.54c11.99,11.98,23.98,23.97,35.97,35.96
		c0.94,0.94,1.93,1.84,3.7,3.53c-1.33-7.08-2.44-13.11-3.59-19.15c-0.9-4.69,0.65-7.78,4.31-8.48c3.81-0.73,6.41,1.35,7.32,6.02
		c2.44,12.46,4.89,24.92,7.24,37.4c1.16,6.17-2.1,9.31-8.35,8.12c-12.47-2.37-24.94-4.8-37.4-7.24c-4.54-0.89-6.65-3.69-5.79-7.49
		c0.78-3.48,3.84-4.99,8.28-4.14c6.1,1.16,12.2,2.31,18.3,3.46C79.69,80.54,80.14,80.02,80.59,79.5z"/>
	<path d="M366.04,81.05c6.1-1.15,12.2-2.3,18.3-3.46c4.41-0.84,7.48,0.72,8.23,4.22c0.82,3.8-1.28,6.54-5.87,7.44
		c-12.46,2.45-24.92,4.88-37.4,7.24c-6.23,1.18-9.44-2-8.28-8.2c2.37-12.6,4.83-25.19,7.3-37.77c0.84-4.3,3.61-6.33,7.32-5.57
		c3.41,0.7,5.16,3.77,4.4,7.81c-1.13,5.99-2.29,11.98-3.42,17.97c-0.04,0.23,0.05,0.49,0.15,1.41c1.19-1.13,2.12-1.98,3.01-2.87
		c12.17-12.16,24.33-24.33,36.5-36.48c0.96-0.96,1.94-1.99,3.1-2.66c2.59-1.51,5.11-1.04,7.15,1.07c1.91,1.99,2.35,4.43,0.9,6.86
		c-0.75,1.26-1.84,2.34-2.89,3.39c-11.97,12-23.96,24-35.98,35.95c-0.95,0.95-2.2,1.61-3.31,2.4
		C365.52,80.22,365.78,80.64,366.04,81.05z"/>
</g>
</svg>
