<?xml version="1.0" encoding="utf-8"?>
<!-- Generator: Adobe Illustrator 25.0.0, SVG Export Plug-In . SVG Version: 6.00 Build 0)  -->
<svg version="1.1" id="Layer_1" xmlns="http://www.w3.org/2000/svg" xmlns:xlink="http://www.w3.org/1999/xlink" x="0px" y="0px"
	 viewBox="0 0 97.47 89.74" style="enable-background:new 0 0 97.47 89.74;" xml:space="preserve">
<style type="text/css">
	.st0{fill:#30302F;}
	.st1{fill:#C1C1C1;}
	.st2{fill:#353535;}
</style>
<g>
	<circle class="st0" cx="49.6" cy="46.02" r="33.45"/>
	<circle class="st1" cx="49.6" cy="46.02" r="27.49"/>
	<path class="st2" d="M51.29,62.83H47.9c-0.69,0-1.24-0.56-1.24-1.24V44.54c0-0.69,0.56-1.24,1.24-1.24h3.38
		c0.69,0,1.24,0.56,1.24,1.24v17.04C52.53,62.27,51.97,62.83,51.29,62.83z"/>
	<path class="st2" d="M51.29,35.89H47.9c-0.69,0-1.24-0.56-1.24-1.24v-3.91c0-0.69,0.56-1.24,1.24-1.24h3.38
		c0.69,0,1.24,0.56,1.24,1.24v3.91C52.53,35.34,51.97,35.89,51.29,35.89z"/>
</g>
</svg>
