<svg width="56" height="11" viewBox="0 0 56 11" fill="none" xmlns="http://www.w3.org/2000/svg">
<path d="M2.37441 4.29042C2.36944 4.29042 2.34959 4.29787 2.31486 4.31275C2.28509 4.32268 2.25035 4.34005 2.21065 4.36486C2.17096 4.38967 2.15111 4.41944 2.15111 4.45418C2.15111 4.45418 2.15111 4.45666 2.15111 4.46162C2.15111 4.46658 2.15359 4.47402 2.15855 4.48395C2.14366 4.47402 2.11885 4.46906 2.08412 4.46906C2.04442 4.46906 2.0072 4.48395 1.97247 4.51372C1.9427 4.53853 1.92781 4.59064 1.92781 4.67003C1.92285 4.67003 1.92037 4.67003 1.92037 4.67003C1.92037 4.66507 1.92037 4.66259 1.92037 4.66259C1.91044 4.66259 1.90052 4.66507 1.89059 4.67003C1.88067 4.67003 1.87571 4.67251 1.87571 4.67747C1.87571 4.68244 1.88067 4.69236 1.89059 4.70725H1.75661C1.74669 4.73702 1.74173 4.78416 1.74173 4.84867C1.7318 4.84867 1.72684 4.84867 1.72684 4.84867C1.72684 4.84371 1.72684 4.84123 1.72684 4.84123C1.71692 4.84123 1.70203 4.85115 1.68218 4.871C1.66729 4.88589 1.65985 4.90325 1.65985 4.9231C1.64993 4.91814 1.6276 4.91566 1.59286 4.91566C1.53828 4.91566 1.47873 4.92062 1.41422 4.93055C1.35468 4.94047 1.31994 4.94543 1.31002 4.94543V4.93799C1.31002 4.9231 1.30257 4.91566 1.28769 4.91566H1.28024C1.27528 4.91566 1.26536 4.92062 1.25047 4.93055C1.23558 4.93551 1.22814 4.93799 1.22814 4.93799V4.94543C1.22318 4.94543 1.2207 4.94791 1.2207 4.95288C1.2207 4.95288 1.21822 4.95288 1.21325 4.95288C1.18844 4.95288 1.16611 4.94543 1.14626 4.93055C1.13138 4.9107 1.12145 4.90077 1.11649 4.90077C1.11649 4.90077 1.10905 4.90822 1.09416 4.9231C1.09416 4.89829 1.08424 4.88589 1.06439 4.88589C1.05446 4.88589 1.03462 4.89085 1.00484 4.90077C0.980032 4.90573 0.95274 4.92062 0.922966 4.94543H0.781544C0.746809 4.97521 0.729441 5.0025 0.729441 5.02731V5.0422H0.721998L0.707111 5.22083H0.677338C0.667414 5.25061 0.662452 5.27542 0.662452 5.29527C0.662452 5.30519 0.667414 5.32504 0.677338 5.35481H0.707111V6.41176C0.687263 6.41176 0.674857 6.42416 0.669895 6.44897V6.45642C0.669895 6.46634 0.672376 6.47379 0.677338 6.47875C0.622754 6.47875 0.595462 6.49115 0.595462 6.51596H0.602905H0.379607C0.369683 6.51596 0.359758 6.50604 0.349834 6.48619C0.33991 6.46634 0.327504 6.45642 0.312618 6.45642C0.302693 6.45642 0.297731 6.4589 0.297731 6.46386V6.30755C0.297731 6.31251 0.302693 6.315 0.312618 6.315C0.337429 6.315 0.349834 6.30507 0.349834 6.28522C0.349834 6.2356 0.342391 6.21079 0.327504 6.21079C0.322542 6.21079 0.312618 6.21823 0.297731 6.23312V5.53345C0.312618 5.53345 0.325023 5.52849 0.334947 5.51856C0.344872 5.50864 0.354796 5.50368 0.364721 5.50368H0.379607C0.379607 5.47887 0.374645 5.46646 0.364721 5.46646C0.354796 5.46646 0.349834 5.47142 0.349834 5.48135C0.349834 5.44661 0.344872 5.42428 0.334947 5.41436H0.297731V4.30531H0.334947C0.344872 4.28546 0.349834 4.25817 0.349834 4.22343C0.349834 4.18374 0.337429 4.12915 0.312618 4.05968C0.287807 3.99021 0.275401 3.94059 0.275401 3.91082V3.62797H0.297731C0.297731 3.61805 0.297731 3.60812 0.297731 3.5982C0.302693 3.58331 0.305174 3.56346 0.305174 3.53865C0.305174 3.50392 0.300212 3.48159 0.290288 3.47166C0.280363 3.46174 0.275401 3.4543 0.275401 3.44933L0.297731 3.43445C0.297731 3.40964 0.297731 3.38731 0.297731 3.36746C0.302693 3.34265 0.305174 3.31535 0.305174 3.28558C0.305174 3.26077 0.302693 3.23596 0.297731 3.21115C0.297731 3.18634 0.297731 3.16153 0.297731 3.13672C0.267958 3.13672 0.253071 3.13423 0.253071 3.12927C0.253071 3.12431 0.260515 3.11439 0.275401 3.0995H0.297731V2.76455L0.729441 2.77944C0.729441 2.79433 0.731922 2.80425 0.736884 2.80921H0.759214C0.833647 2.80921 0.945296 2.80177 1.09416 2.78688C1.24303 2.772 1.43159 2.76455 1.65985 2.76455V2.772C1.65985 2.78688 1.67722 2.79433 1.71195 2.79433V2.98041H1.85338C1.85338 3.02507 1.87819 3.0474 1.92781 3.0474V3.18138C1.98239 3.18138 2.02457 3.19378 2.05434 3.21859C2.08412 3.23844 2.10893 3.26077 2.12878 3.28558C2.15359 3.31039 2.18088 3.3352 2.21065 3.36001C2.24539 3.37986 2.29253 3.38979 2.35208 3.38979C2.34711 3.38979 2.34463 3.39475 2.34463 3.40467V3.41212C2.34463 3.42204 2.34959 3.427 2.35952 3.427L2.37441 3.41212V4.29042ZM2.00224 4.05224V3.78428H1.97247V3.43445C1.93773 3.43445 1.92037 3.43197 1.92037 3.427C1.92037 3.42204 1.92285 3.41708 1.92781 3.41212C1.89804 3.41212 1.86578 3.40467 1.83105 3.38979C1.80127 3.3749 1.7715 3.36746 1.74173 3.36746V3.31535H1.71195V3.26325C1.52339 3.26325 1.39685 3.25085 1.33235 3.22604C1.29265 3.22604 1.2728 3.23596 1.2728 3.25581V3.26325C1.2728 3.25829 1.27032 3.25581 1.26536 3.25581C1.25047 3.25581 1.23558 3.25829 1.2207 3.26325C1.20581 3.26325 1.19341 3.26325 1.18348 3.26325C1.17852 3.26325 1.17604 3.25581 1.17604 3.24092V3.22604C1.16611 3.22604 1.16115 3.22355 1.16115 3.21859C1.16115 3.21363 1.15619 3.21115 1.14626 3.21115C1.09168 3.21115 1.03213 3.22107 0.967626 3.24092C0.903118 3.25581 0.843571 3.26325 0.788987 3.26325H0.744328C0.719517 3.3228 0.707111 3.37986 0.707111 3.43445H0.677338V3.50144H0.707111C0.717036 3.53121 0.721998 3.5585 0.721998 3.58331C0.721998 3.60812 0.717036 3.63542 0.707111 3.66519H0.677338V3.83638H0.707111C0.717036 3.85623 0.721998 3.88104 0.721998 3.91082C0.721998 3.93563 0.717036 3.96788 0.707111 4.00758H0.677338V4.23832C0.707111 4.23832 0.721998 4.24825 0.721998 4.26809C0.721998 4.27802 0.707111 4.28298 0.677338 4.28298V4.35741H0.707111C0.712074 4.3723 0.714555 4.38719 0.714555 4.40207C0.719517 4.412 0.721998 4.42937 0.721998 4.45418C0.761695 4.45418 0.781544 4.45914 0.781544 4.46906V4.48395C1.00484 4.48395 1.17852 4.48147 1.30257 4.47651C1.42663 4.47154 1.50106 4.46658 1.52587 4.46162L1.54076 4.48395C1.56557 4.48395 1.59534 4.48891 1.63008 4.49884C1.66481 4.5038 1.69211 4.50628 1.71195 4.50628C1.71195 4.46658 1.72684 4.44673 1.75661 4.44673C1.75661 4.44673 1.75909 4.44673 1.76406 4.44673C1.77398 4.44673 1.78391 4.44921 1.79383 4.45418V4.29042H1.92781C1.92285 4.29042 1.92037 4.28794 1.92037 4.28298C1.92037 4.26809 1.93277 4.26065 1.95758 4.26065C1.95758 4.26065 1.95758 4.26313 1.95758 4.26809C1.96254 4.26809 1.96751 4.26809 1.97247 4.26809V4.05224H2.00224ZM5.04294 5.68232H5.00572V5.8163C4.9561 5.8163 4.93129 5.84111 4.93129 5.89073C4.92633 5.89073 4.92136 5.89073 4.9164 5.89073C4.9164 5.88577 4.91392 5.88329 4.90896 5.88329C4.89407 5.88329 4.88167 5.88825 4.87174 5.89817C4.86182 5.9081 4.84941 5.91306 4.83452 5.91306L4.82708 6.00982C4.8122 5.99493 4.79979 5.98749 4.78987 5.98749C4.77994 5.98749 4.7725 5.9999 4.76754 6.02471C4.76754 6.04456 4.76257 6.05448 4.75265 6.05448L4.74521 6.04704V6.08425C4.73032 6.07929 4.71543 6.07681 4.70055 6.07681C4.66085 6.07681 4.61619 6.09418 4.56657 6.12891C4.52191 6.16365 4.49958 6.18598 4.49958 6.1959C4.49958 6.20583 4.50206 6.21327 4.50702 6.21823C4.50206 6.21327 4.49462 6.21079 4.48469 6.21079C4.47477 6.21079 4.46732 6.22071 4.46236 6.24056C4.4574 6.25545 4.44996 6.27778 4.44003 6.30755C4.43011 6.33236 4.41026 6.35966 4.38048 6.38943C4.35567 6.41424 4.31846 6.43409 4.26884 6.44897L4.25395 6.45642C4.25395 6.46138 4.25891 6.46386 4.26884 6.46386C4.25395 6.46386 4.23162 6.46138 4.20185 6.45642C4.17704 6.45146 4.15471 6.44897 4.13486 6.44897C4.13486 6.44897 4.12741 6.45146 4.11253 6.45642C4.1026 6.45642 4.07779 6.45642 4.03809 6.45642C4.00336 6.45642 3.94877 6.4589 3.87434 6.46386C3.80487 6.46386 3.71059 6.46386 3.5915 6.46386C3.5915 6.4589 3.59398 6.45642 3.59894 6.45642C3.6039 6.45642 3.60638 6.45642 3.60638 6.45642C3.60638 6.42664 3.57909 6.41176 3.52451 6.41176V6.30755C3.51458 6.29763 3.49225 6.29267 3.45752 6.29267H3.38309C3.3682 6.29267 3.35579 6.28026 3.34587 6.25545C3.33594 6.23064 3.32354 6.21823 3.30865 6.21823C3.30865 6.17854 3.30369 6.14876 3.29377 6.12891H3.25655V6.08425C3.25655 6.07929 3.24414 6.06937 3.21933 6.05448C3.19452 6.03959 3.18212 6.02471 3.18212 6.00982C3.17716 5.9999 3.16723 5.99493 3.15234 5.99493C3.14242 5.99493 3.13746 6.00238 3.13746 6.01726C3.13746 6.03215 3.1325 6.03959 3.12257 6.03959V6.03215C3.12257 6.00238 3.11513 5.98749 3.10024 5.98749H3.07047V5.91306C3.05062 5.89321 3.02581 5.87832 2.99604 5.8684C2.96626 5.85351 2.93153 5.83366 2.89183 5.80885V4.56583H2.85461V4.45418C2.91416 4.4244 2.95882 4.40455 2.98859 4.39463C3.01837 4.38471 3.03821 4.37478 3.04814 4.36486C3.06302 4.35493 3.07047 4.34501 3.07047 4.33508C3.07047 4.32516 3.07047 4.30531 3.07047 4.27554C3.09528 4.25569 3.12257 4.2408 3.15234 4.23088C3.18708 4.22095 3.21685 4.21351 3.24166 4.20855C3.27144 4.19862 3.29625 4.18622 3.3161 4.17133C3.33594 4.15645 3.34587 4.1366 3.34587 4.11179C3.34587 4.10682 3.34339 4.10186 3.33843 4.0969C3.33843 4.09194 3.33843 4.08449 3.33843 4.07457C3.34339 4.04976 3.35579 4.03239 3.37564 4.02247C3.39549 4.01254 3.41534 4.0051 3.43519 4.00014C3.46 3.99021 3.47985 3.98029 3.49473 3.97036C3.51458 3.95548 3.52451 3.93315 3.52451 3.90337H3.5915V3.85871C3.60142 3.85871 3.60638 3.8612 3.60638 3.86616C3.60638 3.86616 3.60887 3.86616 3.61383 3.86616C3.62375 3.86616 3.63119 3.8612 3.63616 3.85127C3.64112 3.84135 3.64856 3.83638 3.65849 3.83638C3.65849 3.83638 3.65849 3.83887 3.65849 3.84383C3.65849 3.84383 3.66097 3.84383 3.66593 3.84383V3.85127L4.02321 3.86616C4.02321 3.89097 4.04058 3.90337 4.07531 3.90337C4.11501 3.86368 4.14726 3.84383 4.17207 3.84383H4.17952C4.1944 3.85375 4.22169 3.85871 4.26139 3.85871C4.30109 3.85871 4.32342 3.85871 4.32838 3.85871C4.33334 3.90337 4.33583 3.94555 4.33583 3.98525C4.33583 4.01998 4.34823 4.0448 4.37304 4.05968V4.02247H4.44747V4.05968C4.47229 4.06961 4.49213 4.07457 4.50702 4.07457C4.52687 4.07457 4.54424 4.07457 4.55912 4.07457V4.2011C4.57401 4.22095 4.60875 4.23088 4.66333 4.23088C4.72288 4.23088 4.76009 4.24576 4.77498 4.27554V4.37974C4.79483 4.37974 4.8246 4.38719 4.8643 4.40207C4.90896 4.412 4.94369 4.41696 4.9685 4.41696C4.95858 4.42688 4.95362 4.43433 4.95362 4.43929C4.95362 4.44921 4.97098 4.45418 5.00572 4.45418V5.33248H5.04294V5.54089C5.01813 5.54089 5.00324 5.54338 4.99828 5.54834C4.99828 5.5533 4.99828 5.55826 4.99828 5.56322C4.99828 5.58804 5.0082 5.60044 5.02805 5.60044C5.03301 5.59548 5.03797 5.593 5.04294 5.593V5.68232ZM4.641 5.8163V5.6451C4.6013 5.6451 4.58145 5.64262 4.58145 5.63766C4.58145 5.6327 4.58393 5.62525 4.5889 5.61533H4.641V4.51372H4.60378C4.59386 4.5038 4.57649 4.49139 4.55168 4.47651C4.53183 4.45666 4.51446 4.43681 4.49958 4.41696C4.49958 4.44177 4.48221 4.45418 4.44747 4.45418C4.44747 4.42937 4.42763 4.412 4.38793 4.40207C4.34823 4.38719 4.32838 4.36734 4.32838 4.34253V4.33508C4.30853 4.31523 4.27628 4.30283 4.23162 4.29787C4.18696 4.29291 4.16711 4.29042 4.17207 4.29042C4.13238 4.29042 4.08523 4.29787 4.03065 4.31275C3.98103 4.32268 3.94381 4.32764 3.919 4.32764C3.90908 4.32764 3.88675 4.32516 3.85201 4.3202C3.81728 4.31523 3.79991 4.30531 3.79991 4.29042C3.79991 4.28546 3.79991 4.28298 3.79991 4.28298C3.80487 4.28298 3.80735 4.2805 3.80735 4.27554H3.62871C3.6039 4.28546 3.57165 4.29539 3.53195 4.30531C3.49225 4.31027 3.47241 4.32516 3.47241 4.34997V4.37974V4.41696H3.46496C3.44511 4.41696 3.42775 4.4244 3.41286 4.43929C3.39797 4.44921 3.38805 4.45418 3.38309 4.45418H3.3682C3.35331 4.45418 3.3161 4.49139 3.25655 4.56583V4.68492C3.26151 4.67499 3.27144 4.67003 3.28632 4.67003C3.30121 4.67003 3.30865 4.68988 3.30865 4.72958C3.30865 4.7395 3.29129 4.74446 3.25655 4.74446V5.37714C3.26151 5.37218 3.27144 5.3697 3.28632 5.3697C3.30121 5.3697 3.30865 5.37962 3.30865 5.39947H3.25655C3.25159 5.41436 3.24911 5.43669 3.24911 5.46646C3.24911 5.48135 3.25903 5.52353 3.27888 5.593C3.29873 5.65751 3.30865 5.71209 3.30865 5.75675V5.80885C3.30865 5.80885 3.31113 5.80885 3.3161 5.80885C3.32602 5.80389 3.33346 5.80141 3.33843 5.80141C3.34339 5.80141 3.35579 5.80389 3.37564 5.80885C3.40045 5.81381 3.41286 5.83118 3.41286 5.86096H3.45008C3.47489 5.86096 3.4997 5.87832 3.52451 5.91306V5.98749C3.52451 5.98253 3.52699 5.98005 3.53195 5.98005H3.55428C3.56421 5.98501 3.56917 5.99493 3.56917 6.00982C3.60887 6.00982 3.63864 6.00734 3.65849 6.00238C3.6833 5.99742 3.70067 5.99245 3.71059 5.98749V6.00982C3.75029 6.00982 3.80983 6.01478 3.88923 6.02471C3.96862 6.02967 4.02073 6.03215 4.04554 6.03215H4.05298C4.08772 6.03215 4.13486 6.02223 4.1944 6.00238C4.25395 5.98253 4.30109 5.9726 4.33583 5.9726C4.34575 5.9726 4.35567 5.9726 4.3656 5.9726C4.38048 5.9726 4.39289 5.97757 4.40281 5.98749C4.40281 5.95772 4.4053 5.93291 4.41026 5.91306C4.41522 5.88825 4.42018 5.87088 4.42514 5.86096H4.50702V5.83118C4.54672 5.82126 4.59138 5.8163 4.641 5.8163ZM5.85065 3.94059C5.84072 3.94555 5.83576 3.95051 5.83576 3.95548C5.83576 3.96044 5.83824 3.96788 5.84321 3.97781C5.84817 3.98773 5.85561 3.99269 5.86553 3.99269C5.86553 3.99269 5.86553 3.99021 5.86553 3.98525C5.8705 3.98029 5.87546 3.97533 5.88042 3.97036V4.20855C5.85065 4.20855 5.83576 4.21599 5.83576 4.23088C5.83576 4.23584 5.84072 4.2408 5.85065 4.24576C5.84072 4.24576 5.83576 4.24825 5.83576 4.25321C5.83576 4.25817 5.83576 4.26065 5.83576 4.26065C5.83576 4.2805 5.84569 4.29042 5.86553 4.29042C5.8705 4.29042 5.87546 4.28794 5.88042 4.28298V5.33993C5.92508 5.35977 5.99951 5.37714 6.10372 5.39203V5.82374C6.16327 5.82374 6.19304 5.84111 6.19304 5.87584C6.31213 5.87584 6.37168 5.86592 6.37168 5.84607V5.31015H6.40889C6.41386 5.28534 6.41634 5.26301 6.41634 5.24316C6.4213 5.22331 6.42378 5.20098 6.42378 5.17617C6.42378 5.15136 6.41882 5.11415 6.40889 5.06452H6.37168V4.89333C6.40641 4.89333 6.42378 4.88589 6.42378 4.871H6.75128L6.7364 4.88589C6.7364 4.88589 6.74136 4.88837 6.75128 4.89333C6.76121 4.89333 6.77113 4.89333 6.78106 4.89333V4.98265C6.75625 4.98265 6.74384 4.99009 6.74384 5.00498C6.74384 5.00498 6.74384 5.00746 6.74384 5.01242C6.74384 5.01242 6.74632 5.01738 6.75128 5.02731C6.74632 5.02731 6.74384 5.02979 6.74384 5.03475C6.74384 5.0546 6.7488 5.06452 6.75873 5.06452C6.76369 5.05956 6.77113 5.0546 6.78106 5.04964C6.78106 5.16377 6.78106 5.25557 6.78106 5.32504C6.78602 5.39451 6.79098 5.44165 6.79594 5.46646L6.80339 5.54089C6.77858 5.54089 6.76617 5.54338 6.76617 5.54834C6.76617 5.5533 6.77113 5.56074 6.78106 5.57067C6.77113 5.57563 6.76617 5.58059 6.76617 5.58555V5.593C6.76617 5.60292 6.77361 5.60788 6.7885 5.60788C6.79843 5.60788 6.80339 5.60292 6.80339 5.593L6.79594 5.75675C6.79098 5.75675 6.78602 5.76667 6.78106 5.78652C6.78106 5.80141 6.78106 5.82126 6.78106 5.84607H6.7885C6.81827 5.84607 6.85053 5.85351 6.88526 5.8684C6.92496 5.87832 6.96466 5.88329 7.00436 5.88329C7.01428 5.88329 7.01924 5.88329 7.01924 5.88329C7.01924 5.87832 7.02421 5.87584 7.03413 5.87584L7.0639 5.39203C7.11352 5.3821 7.16315 5.36474 7.21277 5.33993C7.26239 5.31015 7.2872 5.24564 7.2872 5.1464C7.2872 5.1067 7.28472 5.07197 7.27976 5.0422C7.2748 5.01242 7.25743 4.98513 7.22765 4.96032H7.27976V3.97036H7.34675V3.94059H7.51794V3.97036H7.62959C7.62959 4.3723 7.63703 4.67251 7.65192 4.871H7.67425V5.33993H7.65936C7.63952 5.33993 7.62959 5.36474 7.62959 5.41436C7.62959 5.41436 7.62711 5.41436 7.62215 5.41436C7.61719 5.41436 7.6023 5.41188 7.57749 5.40692C7.53779 5.40692 7.51794 5.41684 7.51794 5.43669V5.44413C7.50802 5.45406 7.50057 5.46646 7.49561 5.48135C7.49561 5.49623 7.49561 5.52601 7.49561 5.57067H7.4584L7.44351 5.87584C7.4187 5.90065 7.39885 5.92298 7.38396 5.94283C7.36908 5.95772 7.36163 5.96764 7.36163 5.9726H7.27976L7.25743 6.18846H7.22765V6.44153C7.20781 6.45146 7.17803 6.45642 7.13834 6.45642C7.09864 6.45146 7.07879 6.4589 7.07879 6.47875C7.07383 6.47875 7.06886 6.48123 7.0639 6.48619C7.05894 6.48619 7.05398 6.48619 7.04902 6.48619C7.02421 6.48619 7.00188 6.48123 6.98203 6.4713C6.96218 6.46138 6.93985 6.45642 6.91504 6.45642C6.91504 6.45642 6.91256 6.4589 6.90759 6.46386C6.90759 6.46386 6.90511 6.46386 6.90015 6.46386C6.89519 6.45394 6.8803 6.43905 6.85549 6.4192C6.83068 6.39935 6.81827 6.38198 6.81827 6.3671L6.86293 6.35221L6.85549 6.34477H6.84805C6.83812 6.34477 6.8282 6.34725 6.81827 6.35221C6.81827 6.30755 6.81579 6.27778 6.81083 6.26289C6.81083 6.24304 6.80835 6.23064 6.80339 6.22568L6.79594 6.15124H6.66941V6.12891C6.65948 6.13884 6.64212 6.14628 6.61731 6.15124C6.59746 6.15124 6.57265 6.15372 6.54287 6.15869C6.51806 6.15869 6.49077 6.16117 6.461 6.16613C6.43619 6.16613 6.41882 6.17357 6.40889 6.18846H6.40145C6.38656 6.18846 6.37664 6.19838 6.37168 6.21823C6.36672 6.23312 6.35927 6.24056 6.34935 6.24056L6.31957 6.44153C6.29476 6.44153 6.2501 6.44897 6.1856 6.46386C6.12109 6.47379 6.07643 6.47875 6.05162 6.47875C6.04169 6.47875 6.02929 6.4713 6.0144 6.45642C6.00448 6.43657 5.99455 6.42664 5.98463 6.42664C5.97967 6.42664 5.97718 6.43161 5.97718 6.44153C5.97718 6.40183 5.97222 6.37702 5.9623 6.3671H5.92508C5.92508 6.36214 5.92508 6.34725 5.92508 6.32244C5.93004 6.29267 5.93501 6.24801 5.93997 6.18846V6.13636C5.93997 6.00238 5.87546 5.93539 5.74644 5.93539V5.84607H5.70923C5.70923 5.7369 5.70675 5.65502 5.70178 5.60044C5.70178 5.54586 5.69682 5.50616 5.6869 5.48135C5.67697 5.45654 5.66457 5.44413 5.64968 5.44413C5.63479 5.43917 5.61246 5.43669 5.58269 5.43669C5.57277 5.43669 5.56532 5.43917 5.56036 5.44413C5.56036 5.44413 5.55788 5.44413 5.55292 5.44413C5.55292 5.4094 5.54796 5.39203 5.53803 5.39203C5.53307 5.39203 5.53059 5.39947 5.53059 5.41436V4.99754C5.55044 4.99754 5.56036 4.99009 5.56036 4.97521C5.56036 4.96032 5.55788 4.94543 5.55292 4.93055C5.54796 4.9107 5.54299 4.90077 5.53803 4.90077C5.53307 4.90077 5.53059 4.90573 5.53059 4.91566V4.88589C5.53059 4.83626 5.52066 4.78664 5.50081 4.73702C5.48593 4.6874 5.47848 4.65018 5.47848 4.62537C5.47848 4.61545 5.47848 4.60552 5.47848 4.5956C5.48345 4.58071 5.48841 4.57079 5.49337 4.56583L5.53059 3.97036C5.54051 3.97036 5.54796 3.96044 5.55292 3.94059H5.85065ZM10.3056 6.09914C10.2559 6.14876 10.2311 6.18102 10.2311 6.1959H10.2014C10.1617 6.1959 10.1344 6.20583 10.1195 6.22568C10.1096 6.24552 10.1021 6.27034 10.0972 6.30011C10.0922 6.32492 10.0872 6.34725 10.0823 6.3671C10.0773 6.38695 10.0599 6.39687 10.0302 6.39687H10.0078C9.95821 6.39687 9.921 6.4192 9.89619 6.46386C9.87137 6.50356 9.84656 6.52837 9.82175 6.53829H9.5538V6.56807H9.12208V6.53829H8.73503V6.56807C8.70526 6.56807 8.65068 6.53829 8.57128 6.47875V6.4192C8.57128 6.39935 8.56136 6.38447 8.54151 6.37454C8.52662 6.35966 8.48196 6.35221 8.40753 6.35221C8.40257 6.33236 8.3852 6.31251 8.35543 6.29267C8.33062 6.26785 8.30332 6.24552 8.27355 6.22568C8.24378 6.20583 8.21649 6.19094 8.19168 6.18102C8.17183 6.17109 8.1619 6.16861 8.1619 6.17357C8.1619 6.10906 8.1619 6.03463 8.1619 5.95027C8.1619 5.86096 8.15942 5.75923 8.15446 5.6451H8.11724C8.13709 5.6451 8.15198 5.62773 8.1619 5.593V5.57811C8.1619 5.55826 8.15942 5.54586 8.15446 5.54089H8.11724V5.50368H8.15446C8.15942 5.47887 8.1619 5.45654 8.1619 5.43669C8.1619 5.41684 8.1619 5.39451 8.1619 5.3697C8.1619 5.34489 8.1619 5.32008 8.1619 5.29527C8.1619 5.27046 8.15942 5.24564 8.15446 5.22083H8.11724V5.12407H8.15446C8.15942 5.11415 8.1619 5.09678 8.1619 5.07197C8.1619 5.05708 8.15942 5.04716 8.15446 5.0422H8.11724V4.90822H8.15446L8.1619 4.71469C8.16686 4.6998 8.17927 4.67747 8.19912 4.6477C8.21897 4.61793 8.22889 4.59064 8.22889 4.56583H8.25122C8.26611 4.56086 8.27355 4.54101 8.27355 4.50628C8.27355 4.49635 8.26611 4.47651 8.25122 4.44673C8.2413 4.41696 8.22393 4.40207 8.19912 4.40207C8.19416 4.40207 8.19168 4.40455 8.19168 4.40952V4.34997C8.20656 4.34997 8.22889 4.34253 8.25866 4.32764C8.2934 4.30779 8.32317 4.29787 8.34798 4.29787C8.35295 4.29787 8.35543 4.30035 8.35543 4.30531C8.35543 4.30531 8.35791 4.30531 8.36287 4.30531C8.37776 4.29042 8.3852 4.26065 8.3852 4.21599C8.41497 4.21599 8.42986 4.20607 8.42986 4.18622C8.42986 4.18622 8.42738 4.18622 8.42242 4.18622C8.41745 4.18622 8.41249 4.18374 8.40753 4.17877H8.4373C8.46708 4.17877 8.50429 4.16885 8.54895 4.149C8.59857 4.12419 8.63827 4.11179 8.66805 4.11179H8.67549C8.67053 4.10682 8.66805 4.0969 8.66805 4.08201C8.66805 4.07705 8.68789 4.07209 8.72759 4.06713C8.76729 4.0572 8.78714 4.05224 8.78714 4.05224V4.03735C8.78714 4.02743 8.78962 4.02247 8.79458 4.02247H8.8318V4.00014L9.06998 3.97781C9.06998 3.99766 9.07246 4.01006 9.07743 4.01502C9.08239 4.01998 9.08735 4.02495 9.09231 4.02991C9.12209 4.01998 9.13697 4.01254 9.13697 4.00758C9.13697 3.99766 9.13201 3.98773 9.12208 3.97781H9.6059V4.12667C9.6456 4.12667 9.66544 4.14404 9.66544 4.17877H9.82175L9.81431 4.18622C9.81431 4.19118 9.81679 4.19862 9.82175 4.20855C9.82672 4.21847 9.83416 4.22343 9.84408 4.22343L9.85153 4.21599C9.85153 4.28546 9.87386 4.32516 9.91852 4.33508C9.96318 4.34005 10.0202 4.35989 10.0897 4.39463V4.5435L10.2683 4.55838C10.2683 4.56334 10.2808 4.56583 10.3056 4.56583V4.69236C10.2808 4.69236 10.2683 4.70229 10.2683 4.72213V4.72958C10.2634 4.72958 10.2609 4.73206 10.2609 4.73702C10.2609 4.73702 10.2634 4.74198 10.2683 4.75191C10.2783 4.76183 10.2857 4.76679 10.2907 4.76679C10.2956 4.76679 10.3006 4.76431 10.3056 4.75935V4.84867C10.2956 4.84867 10.2857 4.85363 10.2758 4.86356C10.2659 4.87348 10.2609 4.88341 10.2609 4.89333C10.2609 4.89829 10.2609 4.90573 10.2609 4.91566C10.2659 4.92558 10.2758 4.93055 10.2907 4.93055C10.2956 4.92558 10.3006 4.91814 10.3056 4.90822L10.2907 5.0422C10.2857 5.0422 10.2808 5.04468 10.2758 5.04964C10.2708 5.04964 10.2659 5.04964 10.2609 5.04964V5.06452C10.2609 5.07941 10.2634 5.09182 10.2683 5.10174C10.2584 5.09678 10.251 5.0943 10.246 5.0943C10.2063 5.0943 10.1716 5.11167 10.1418 5.1464C10.117 5.17617 10.1046 5.19354 10.1046 5.1985C10.1046 5.20843 10.1096 5.21587 10.1195 5.22083H10.0897V5.26549C10.0897 5.32504 10.0723 5.40443 10.0376 5.50368C10.0277 5.49375 10.0227 5.48879 10.0227 5.48879C10.0178 5.48879 10.0128 5.49623 10.0078 5.51112C10.0029 5.52601 9.99543 5.53345 9.98551 5.53345C9.98054 5.53345 9.97806 5.53097 9.97806 5.52601V5.50368C9.83416 5.50368 9.76221 5.51112 9.76221 5.52601C9.76221 5.49623 9.7498 5.48135 9.72499 5.48135L9.658 5.50368H9.66544C9.63567 5.51856 9.5538 5.52601 9.41982 5.52601V5.50368C9.33546 5.51856 9.08735 5.52601 8.67549 5.52601V5.50368C8.67549 5.49375 8.67301 5.48631 8.66805 5.48135C8.64323 5.48135 8.62587 5.48879 8.61594 5.50368C8.60602 5.51856 8.59113 5.52601 8.57128 5.52601V5.9726C8.58121 5.96268 8.59361 5.95772 8.6085 5.95772C8.61842 5.95772 8.62835 5.96764 8.63827 5.98749C8.65316 6.00238 8.66805 6.00982 8.68293 6.00982C8.68293 6.00982 8.68541 6.00982 8.69037 6.00982C8.7003 6.00982 8.70774 6.00486 8.7127 5.99493C8.7127 6.03463 8.74 6.06441 8.79458 6.08425C8.85413 6.1041 8.91864 6.11899 8.98811 6.12891C9.05758 6.13388 9.1196 6.13636 9.17419 6.13636C9.22877 6.13636 9.25606 6.13636 9.25606 6.13636H9.27839C9.27839 6.13636 9.2908 6.13636 9.31561 6.13636C9.34042 6.13139 9.37516 6.12891 9.41982 6.12891L9.41237 6.13636C9.41237 6.14628 9.41485 6.15124 9.41982 6.15124C9.42478 6.15124 9.4347 6.14876 9.44959 6.1438C9.46448 6.13884 9.47688 6.13636 9.48681 6.13636H9.49425C9.54883 6.13636 9.62078 6.11899 9.7101 6.08425V5.9726C9.72499 5.9726 9.74484 5.97012 9.76965 5.96516C9.79942 5.95524 9.82672 5.94531 9.85153 5.93539C9.8813 5.9205 9.90611 5.90313 9.92596 5.88329C9.94581 5.86344 9.95573 5.83863 9.95573 5.80885C9.99543 5.80885 10.0351 5.80885 10.0748 5.80885C10.1145 5.80389 10.1468 5.79397 10.1716 5.77908V5.80885C10.1914 5.789 10.2237 5.77908 10.2683 5.77908V5.85351H10.3056V6.09914ZM9.90363 4.96032C9.90363 4.93551 9.8937 4.89333 9.87386 4.83378C9.85897 4.77424 9.85153 4.72213 9.85153 4.67747V4.67003C9.8416 4.66011 9.82423 4.65018 9.79942 4.64026C9.77461 4.62537 9.7498 4.61048 9.72499 4.5956C9.70018 4.58071 9.67785 4.56086 9.658 4.53605C9.64311 4.51124 9.63567 4.48395 9.63567 4.45418C9.61086 4.45418 9.59845 4.4517 9.59845 4.44673L9.6059 4.43185C9.57612 4.43185 9.55131 4.42937 9.53147 4.4244C9.51162 4.41944 9.49673 4.41448 9.48681 4.40952V4.39463C9.43718 4.39463 9.40741 4.40704 9.39749 4.43185L8.81691 4.40952V4.39463C8.80202 4.38967 8.78714 4.38719 8.77225 4.38719C8.74248 4.38719 8.71022 4.40952 8.67549 4.45418C8.64075 4.49387 8.62339 4.54846 8.62339 4.61793H8.6085C8.59857 4.61793 8.58865 4.64026 8.57873 4.68492C8.57376 4.72462 8.56632 4.74943 8.5564 4.75935H8.52662C8.55143 4.78416 8.56384 4.82634 8.56384 4.88589C8.56384 4.94543 8.57128 4.98761 8.58617 5.01242C8.60602 5.03227 8.62587 5.04468 8.64572 5.04964C8.67053 5.0546 8.69037 5.0546 8.70526 5.04964C8.72511 5.04468 8.73752 5.04468 8.74248 5.04964C8.7921 5.04964 8.81691 5.04716 8.81691 5.0422C8.85661 5.0422 8.88638 5.04468 8.90623 5.04964C8.92608 5.04964 8.93848 5.04964 8.94345 5.04964C9.05261 5.04964 9.12705 5.04468 9.16674 5.03475C9.2114 5.02483 9.2511 5.01987 9.28584 5.01987H9.30072C9.30569 5.01987 9.30817 5.02731 9.30817 5.0422V5.04964C9.41237 5.04964 9.48184 5.04716 9.51658 5.0422C9.55131 5.03723 9.58357 5.03475 9.61334 5.03475C9.63815 5.03475 9.66048 5.03971 9.68033 5.04964C9.70018 5.05956 9.7101 5.06452 9.7101 5.06452C9.72003 5.06452 9.73243 5.05708 9.74732 5.0422C9.76221 5.02731 9.77709 5.01987 9.79198 5.01987C9.79694 5.01987 9.80687 5.02731 9.82175 5.0422C9.82175 4.98761 9.84905 4.96032 9.90363 4.96032ZM12.922 4.94543C12.9071 4.95536 12.8897 4.96776 12.8699 4.98265C12.855 4.99754 12.8352 5.0149 12.8103 5.03475C12.7905 4.97521 12.7533 4.94543 12.6987 4.94543C12.6987 4.90077 12.6937 4.87844 12.6838 4.87844C12.6391 4.84867 12.6044 4.82634 12.5796 4.81145C12.5598 4.7916 12.5498 4.78168 12.5498 4.78168V4.71469H12.5126C12.5126 4.64522 12.5077 4.5956 12.4977 4.56583L12.4828 4.52861C12.4828 4.51372 12.4754 4.50132 12.4605 4.49139C12.4456 4.48147 12.4034 4.47651 12.334 4.47651C12.334 4.44673 12.3315 4.43185 12.3265 4.43185C12.3265 4.43185 12.3166 4.43681 12.2968 4.44673C12.2968 4.41696 12.2868 4.39463 12.267 4.37974C12.2521 4.35989 12.2397 4.34997 12.2298 4.34997L12.2223 4.3202H12.0288C12.0288 4.30531 12.0263 4.29787 12.0214 4.29787C12.0214 4.29291 12.0214 4.29042 12.0214 4.29042C12.0114 4.29042 11.9965 4.29539 11.9767 4.30531C11.9618 4.31523 11.942 4.3202 11.9172 4.3202C11.9172 4.29042 11.9097 4.27554 11.8948 4.27554C11.8799 4.27554 11.87 4.28546 11.865 4.30531C11.865 4.3202 11.8601 4.32764 11.8502 4.32764C11.8452 4.32764 11.8427 4.32764 11.8427 4.32764C11.8427 4.32268 11.8402 4.3202 11.8353 4.3202C11.8105 4.33508 11.7981 4.38719 11.7981 4.47651H11.7683C11.7484 4.47651 11.7162 4.49139 11.6715 4.52117C11.6269 4.54598 11.5822 4.57575 11.5375 4.61048C11.4929 4.64522 11.4532 4.67996 11.4185 4.71469C11.3887 4.74943 11.3738 4.77672 11.3738 4.79657V4.80401C11.3639 4.80401 11.3465 4.8189 11.3217 4.84867C11.2969 4.87844 11.2696 4.90077 11.2398 4.91566C11.21 4.92558 11.1952 4.94047 11.1952 4.96032C11.1952 4.97521 11.1976 4.98513 11.2026 4.99009H11.1579V5.66743H11.1356C11.1306 5.68728 11.1282 5.7245 11.1282 5.77908C11.1282 5.79893 11.1282 5.81878 11.1282 5.83863C11.1282 5.85847 11.1306 5.8808 11.1356 5.90562H11.1579V6.40431C11.1133 6.40431 11.0909 6.42664 11.0909 6.4713H11.0165V6.50852H10.9495V6.45642C10.9297 6.44649 10.8825 6.44153 10.8081 6.44153C10.8081 6.41672 10.8031 6.39935 10.7932 6.38943H10.7709V5.47391H10.7932C10.8031 5.44413 10.8081 5.42428 10.8081 5.41436C10.8081 5.39947 10.8031 5.3821 10.7932 5.36226H10.7709V5.19106H10.7932C10.8031 5.15136 10.8081 5.11415 10.8081 5.07941C10.8081 5.04468 10.8031 5.00746 10.7932 4.96776H10.7709V4.66259H10.7932C10.8031 4.64274 10.8081 4.62289 10.8081 4.60304C10.8081 4.58816 10.8031 4.56583 10.7932 4.53605H10.7709V4.40207C10.7858 4.40207 10.7932 4.39711 10.7932 4.38719C10.7932 4.3723 10.7957 4.36486 10.8007 4.36486C10.8106 4.36486 10.818 4.36734 10.823 4.3723C10.823 4.36238 10.823 4.34997 10.823 4.33508C10.828 4.3202 10.8304 4.30531 10.8304 4.29042C10.8304 4.2805 10.828 4.27058 10.823 4.26065C10.823 4.24576 10.823 4.23584 10.823 4.23088H10.8081C10.8081 4.19614 10.8031 4.17381 10.7932 4.16389H10.7709V4.08946H10.7932C10.8031 4.05968 10.8081 4.04231 10.8081 4.03735C10.8081 4.02247 10.8056 4.00758 10.8007 3.99269C10.8007 3.97781 10.7957 3.97036 10.7858 3.97036C10.7758 3.97036 10.7709 3.97284 10.7709 3.97781C10.7709 3.97781 10.7684 3.97781 10.7634 3.97781C10.7634 3.98773 10.7709 3.98029 10.7858 3.95548C10.8007 3.9257 10.8131 3.91082 10.823 3.91082C10.823 3.94059 10.8304 3.95796 10.8453 3.96292C10.8801 3.96292 10.8974 3.95548 10.8974 3.94059C10.8974 3.93563 10.8949 3.93315 10.89 3.93315C10.885 3.92818 10.8801 3.92074 10.8751 3.91082H11.0612C11.0513 3.9257 11.0463 3.93563 11.0463 3.94059C11.0463 3.97533 11.0761 3.99269 11.1356 3.99269L11.1431 4.38719C11.1629 4.38719 11.1877 4.39959 11.2175 4.4244C11.2522 4.44425 11.2795 4.45418 11.2994 4.45418C11.3192 4.45418 11.3366 4.43681 11.3515 4.40207C11.3713 4.36734 11.3961 4.33012 11.4259 4.29042H11.6194V4.15644C11.6641 4.15644 11.6864 4.14652 11.6864 4.12667L11.6641 4.10434C11.7236 4.10434 11.7633 4.10434 11.7832 4.10434C11.808 4.09938 11.8229 4.09442 11.8278 4.08946C11.8378 4.07953 11.8427 4.07209 11.8427 4.06713C11.8477 4.06216 11.8626 4.05472 11.8874 4.0448C11.8874 4.01006 11.8799 3.99269 11.865 3.99269C11.8551 3.99269 11.8502 4.00014 11.8502 4.01502V3.91082C11.8502 3.92074 11.8601 3.9257 11.8799 3.9257C11.8899 3.9257 11.8998 3.92074 11.9097 3.91082C11.9196 3.91082 11.9271 3.91082 11.932 3.91082C11.942 3.90585 11.9444 3.90337 11.9395 3.90337L12.1032 3.91082C12.0983 3.92074 12.0958 3.92818 12.0958 3.93315C12.0958 3.953 12.1082 3.96292 12.133 3.96292C12.1578 3.96292 12.1702 3.95548 12.1702 3.94059C12.1752 3.92074 12.1826 3.91082 12.1926 3.91082H12.2074C12.2074 3.95051 12.2149 3.97036 12.2298 3.97036C12.2397 3.97036 12.2447 3.96788 12.2447 3.96292V4.07457C12.2546 4.06961 12.2645 4.06713 12.2744 4.06713C12.2992 4.06713 12.3265 4.07457 12.3563 4.08946C12.391 4.10434 12.4208 4.11179 12.4456 4.11179C12.4506 4.11179 12.4531 4.11179 12.4531 4.11179C12.458 4.10682 12.4655 4.10434 12.4754 4.10434V4.20855C12.4754 4.24825 12.4804 4.27306 12.4903 4.28298C12.5052 4.28794 12.5449 4.29042 12.6094 4.29042H12.6615C12.6615 4.34005 12.664 4.36734 12.6689 4.3723H12.6838C12.6838 4.39711 12.6937 4.41448 12.7136 4.4244C12.7384 4.43433 12.7706 4.4517 12.8103 4.47651H12.922V4.61793C12.8922 4.61793 12.8773 4.63281 12.8773 4.66259C12.8773 4.6874 12.8823 4.6998 12.8922 4.6998C12.9071 4.6998 12.917 4.69732 12.922 4.69236V4.78168H12.8848C12.8848 4.7916 12.8823 4.80401 12.8773 4.8189C12.8773 4.82882 12.8773 4.83875 12.8773 4.84867C12.8773 4.85859 12.8773 4.86852 12.8773 4.87844C12.8823 4.88837 12.8848 4.90077 12.8848 4.91566C12.8997 4.90077 12.9096 4.89333 12.9146 4.89333C12.9195 4.89333 12.922 4.9107 12.922 4.94543ZM15.5682 6.09914C15.5186 6.14876 15.4938 6.18102 15.4938 6.1959H15.464C15.4243 6.1959 15.397 6.20583 15.3821 6.22568C15.3722 6.24552 15.3647 6.27034 15.3598 6.30011C15.3548 6.32492 15.3499 6.34725 15.3449 6.3671C15.3399 6.38695 15.3226 6.39687 15.2928 6.39687H15.2705C15.2208 6.39687 15.1836 6.4192 15.1588 6.46386C15.134 6.50356 15.1092 6.52837 15.0844 6.53829H14.8164V6.56807H14.3847V6.53829H13.9977V6.56807C13.9679 6.56807 13.9133 6.53829 13.8339 6.47875V6.4192C13.8339 6.39935 13.824 6.38447 13.8041 6.37454C13.7893 6.35966 13.7446 6.35221 13.6702 6.35221C13.6652 6.33236 13.6478 6.31251 13.6181 6.29267C13.5932 6.26785 13.566 6.24552 13.5362 6.22568C13.5064 6.20583 13.4791 6.19094 13.4543 6.18102C13.4345 6.17109 13.4245 6.16861 13.4245 6.17357C13.4245 6.10906 13.4245 6.03463 13.4245 5.95027C13.4245 5.86096 13.4221 5.75923 13.4171 5.6451H13.3799C13.3997 5.6451 13.4146 5.62773 13.4245 5.593V5.57811C13.4245 5.55826 13.4221 5.54586 13.4171 5.54089H13.3799V5.50368H13.4171C13.4221 5.47887 13.4245 5.45654 13.4245 5.43669C13.4245 5.41684 13.4245 5.39451 13.4245 5.3697C13.4245 5.34489 13.4245 5.32008 13.4245 5.29527C13.4245 5.27046 13.4221 5.24564 13.4171 5.22083H13.3799V5.12407H13.4171C13.4221 5.11415 13.4245 5.09678 13.4245 5.07197C13.4245 5.05708 13.4221 5.04716 13.4171 5.0422H13.3799V4.90822H13.4171L13.4245 4.71469C13.4295 4.6998 13.4419 4.67747 13.4617 4.6477C13.4816 4.61793 13.4915 4.59064 13.4915 4.56583H13.5139C13.5287 4.56086 13.5362 4.54101 13.5362 4.50628C13.5362 4.49635 13.5287 4.47651 13.5139 4.44673C13.5039 4.41696 13.4866 4.40207 13.4617 4.40207C13.4568 4.40207 13.4543 4.40455 13.4543 4.40952V4.34997C13.4692 4.34997 13.4915 4.34253 13.5213 4.32764C13.556 4.30779 13.5858 4.29787 13.6106 4.29787C13.6156 4.29787 13.6181 4.30035 13.6181 4.30531C13.6181 4.30531 13.6205 4.30531 13.6255 4.30531C13.6404 4.29042 13.6478 4.26065 13.6478 4.21599C13.6776 4.21599 13.6925 4.20607 13.6925 4.18622C13.6925 4.18622 13.69 4.18622 13.685 4.18622C13.6801 4.18622 13.6751 4.18374 13.6702 4.17877H13.6999C13.7297 4.17877 13.7669 4.16885 13.8116 4.149C13.8612 4.12419 13.9009 4.11179 13.9307 4.11179H13.9381C13.9332 4.10682 13.9307 4.0969 13.9307 4.08201C13.9307 4.07705 13.9505 4.07209 13.9902 4.06713C14.0299 4.0572 14.0498 4.05224 14.0498 4.05224V4.03735C14.0498 4.02743 14.0522 4.02247 14.0572 4.02247H14.0944V4.00014L14.3326 3.97781C14.3326 3.99766 14.3351 4.01006 14.3401 4.01502C14.345 4.01998 14.35 4.02495 14.3549 4.02991C14.3847 4.01998 14.3996 4.01254 14.3996 4.00758C14.3996 3.99766 14.3946 3.98773 14.3847 3.97781H14.8685V4.12667C14.9082 4.12667 14.9281 4.14404 14.9281 4.17877H15.0844L15.0769 4.18622C15.0769 4.19118 15.0794 4.19862 15.0844 4.20855C15.0893 4.21847 15.0968 4.22343 15.1067 4.22343L15.1142 4.21599C15.1142 4.28546 15.1365 4.32516 15.1811 4.33508C15.2258 4.34005 15.2829 4.35989 15.3523 4.39463V4.5435L15.531 4.55838C15.531 4.56334 15.5434 4.56583 15.5682 4.56583V4.69236C15.5434 4.69236 15.531 4.70229 15.531 4.72213V4.72958C15.526 4.72958 15.5235 4.73206 15.5235 4.73702C15.5235 4.73702 15.526 4.74198 15.531 4.75191C15.5409 4.76183 15.5483 4.76679 15.5533 4.76679C15.5583 4.76679 15.5632 4.76431 15.5682 4.75935V4.84867C15.5583 4.84867 15.5483 4.85363 15.5384 4.86356C15.5285 4.87348 15.5235 4.88341 15.5235 4.89333C15.5235 4.89829 15.5235 4.90573 15.5235 4.91566C15.5285 4.92558 15.5384 4.93055 15.5533 4.93055C15.5583 4.92558 15.5632 4.91814 15.5682 4.90822L15.5533 5.0422C15.5483 5.0422 15.5434 5.04468 15.5384 5.04964C15.5335 5.04964 15.5285 5.04964 15.5235 5.04964V5.06452C15.5235 5.07941 15.526 5.09182 15.531 5.10174C15.5211 5.09678 15.5136 5.0943 15.5086 5.0943C15.469 5.0943 15.4342 5.11167 15.4044 5.1464C15.3796 5.17617 15.3672 5.19354 15.3672 5.1985C15.3672 5.20843 15.3722 5.21587 15.3821 5.22083H15.3523V5.26549C15.3523 5.32504 15.335 5.40443 15.3002 5.50368C15.2903 5.49375 15.2854 5.48879 15.2854 5.48879C15.2804 5.48879 15.2754 5.49623 15.2705 5.51112C15.2655 5.52601 15.2581 5.53345 15.2481 5.53345C15.2432 5.53345 15.2407 5.53097 15.2407 5.52601V5.50368C15.0968 5.50368 15.0248 5.51112 15.0248 5.52601C15.0248 5.49623 15.0124 5.48135 14.9876 5.48135L14.9206 5.50368H14.9281C14.8983 5.51856 14.8164 5.52601 14.6824 5.52601V5.50368C14.5981 5.51856 14.35 5.52601 13.9381 5.52601V5.50368C13.9381 5.49375 13.9356 5.48631 13.9307 5.48135C13.9059 5.48135 13.8885 5.48879 13.8786 5.50368C13.8686 5.51856 13.8538 5.52601 13.8339 5.52601V5.9726C13.8438 5.96268 13.8562 5.95772 13.8711 5.95772C13.8811 5.95772 13.891 5.96764 13.9009 5.98749C13.9158 6.00238 13.9307 6.00982 13.9456 6.00982C13.9456 6.00982 13.948 6.00982 13.953 6.00982C13.9629 6.00982 13.9704 6.00486 13.9753 5.99493C13.9753 6.03463 14.0026 6.06441 14.0572 6.08425C14.1168 6.1041 14.1813 6.11899 14.2507 6.12891C14.3202 6.13388 14.3822 6.13636 14.4368 6.13636C14.4914 6.13636 14.5187 6.13636 14.5187 6.13636H14.541C14.541 6.13636 14.5534 6.13636 14.5782 6.13636C14.6031 6.13139 14.6378 6.12891 14.6824 6.12891L14.675 6.13636C14.675 6.14628 14.6775 6.15124 14.6824 6.15124C14.6874 6.15124 14.6973 6.14876 14.7122 6.1438C14.7271 6.13884 14.7395 6.13636 14.7494 6.13636H14.7569C14.8115 6.13636 14.8834 6.11899 14.9727 6.08425V5.9726C14.9876 5.9726 15.0075 5.97012 15.0323 5.96516C15.0621 5.95524 15.0893 5.94531 15.1142 5.93539C15.1439 5.9205 15.1687 5.90313 15.1886 5.88329C15.2084 5.86344 15.2184 5.83863 15.2184 5.80885C15.2581 5.80885 15.2978 5.80885 15.3375 5.80885C15.3772 5.80389 15.4094 5.79397 15.4342 5.77908V5.80885C15.4541 5.789 15.4863 5.77908 15.531 5.77908V5.85351H15.5682V6.09914ZM15.1663 4.96032C15.1663 4.93551 15.1563 4.89333 15.1365 4.83378C15.1216 4.77424 15.1142 4.72213 15.1142 4.67747V4.67003C15.1042 4.66011 15.0869 4.65018 15.0621 4.64026C15.0372 4.62537 15.0124 4.61048 14.9876 4.5956C14.9628 4.58071 14.9405 4.56086 14.9206 4.53605C14.9057 4.51124 14.8983 4.48395 14.8983 4.45418C14.8735 4.45418 14.8611 4.4517 14.8611 4.44673L14.8685 4.43185C14.8388 4.43185 14.8139 4.42937 14.7941 4.4244C14.7742 4.41944 14.7594 4.41448 14.7494 4.40952V4.39463C14.6998 4.39463 14.67 4.40704 14.6601 4.43185L14.0795 4.40952V4.39463C14.0647 4.38967 14.0498 4.38719 14.0349 4.38719C14.0051 4.38719 13.9729 4.40952 13.9381 4.45418C13.9034 4.49387 13.886 4.54846 13.886 4.61793H13.8711C13.8612 4.61793 13.8513 4.64026 13.8414 4.68492C13.8364 4.72462 13.829 4.74943 13.819 4.75935H13.7893C13.8141 4.78416 13.8265 4.82634 13.8265 4.88589C13.8265 4.94543 13.8339 4.98761 13.8488 5.01242C13.8686 5.03227 13.8885 5.04468 13.9083 5.04964C13.9332 5.0546 13.953 5.0546 13.9679 5.04964C13.9877 5.04468 14.0001 5.04468 14.0051 5.04964C14.0547 5.04964 14.0795 5.04716 14.0795 5.0422C14.1192 5.0422 14.149 5.04468 14.1689 5.04964C14.1887 5.04964 14.2011 5.04964 14.2061 5.04964C14.3152 5.04964 14.3897 5.04468 14.4294 5.03475C14.474 5.02483 14.5137 5.01987 14.5485 5.01987H14.5634C14.5683 5.01987 14.5708 5.02731 14.5708 5.0422V5.04964C14.675 5.04964 14.7445 5.04716 14.7792 5.0422C14.8139 5.03723 14.8462 5.03475 14.876 5.03475C14.9008 5.03475 14.9231 5.03971 14.943 5.04964C14.9628 5.05956 14.9727 5.06452 14.9727 5.06452C14.9827 5.06452 14.9951 5.05708 15.01 5.0422C15.0248 5.02731 15.0397 5.01987 15.0546 5.01987C15.0596 5.01987 15.0695 5.02731 15.0844 5.0422C15.0844 4.98761 15.1117 4.96032 15.1663 4.96032ZM18.1697 6.51596C18.1648 6.51596 18.1598 6.51348 18.1549 6.50852C18.1549 6.50852 18.1524 6.50852 18.1474 6.50852C18.1176 6.50852 18.0829 6.51596 18.0432 6.53085C18.0035 6.54574 17.9712 6.55318 17.9464 6.55318C17.9415 6.55318 17.9291 6.54326 17.9092 6.52341C17.8943 6.50852 17.8646 6.49115 17.8199 6.4713C17.7802 6.44649 17.7231 6.42664 17.6487 6.41176C17.5792 6.39191 17.4924 6.38198 17.3882 6.38198L17.3733 6.47875C17.3138 6.47875 17.284 6.4986 17.284 6.53829H17.1723C17.1723 6.55814 17.1674 6.56807 17.1575 6.56807V6.53829H16.9937V6.56807H16.6736C16.6488 6.53333 16.6141 6.51348 16.5694 6.50852C16.5248 6.50356 16.5 6.49115 16.495 6.4713C16.4851 6.45642 16.4677 6.44649 16.4429 6.44153C16.423 6.43161 16.3982 6.42416 16.3685 6.4192C16.3437 6.40928 16.3188 6.39935 16.294 6.38943C16.2692 6.3795 16.2543 6.3671 16.2494 6.35221V6.30011C16.2196 6.30011 16.1898 6.28026 16.1601 6.24056C16.1303 6.1959 16.098 6.17357 16.0633 6.17357V6.09914H16.0335V5.68976H16.0633C16.0732 5.65999 16.0782 5.6451 16.0782 5.6451C16.0782 5.62029 16.0732 5.60292 16.0633 5.593H16.0335V5.10174C16.0434 5.10174 16.0534 5.08934 16.0633 5.06452C16.0633 5.02979 16.0608 5.01242 16.0558 5.01242C16.0558 5.01242 16.0534 5.0149 16.0484 5.01987C16.0434 5.02483 16.0385 5.03227 16.0335 5.0422V4.56583H16.2494V4.34997H16.428C16.428 4.29042 16.4404 4.24825 16.4652 4.22343C16.49 4.19862 16.5148 4.18126 16.5397 4.17133C16.5694 4.16141 16.5967 4.15644 16.6215 4.15644C16.6463 4.15148 16.6588 4.14156 16.6588 4.12667V4.08201C16.6588 4.07209 16.6637 4.06713 16.6736 4.06713C16.6885 4.06216 16.696 4.03239 16.696 3.97781H16.8374C16.8374 3.99766 16.8374 4.01006 16.8374 4.01502C16.8424 4.01998 16.8448 4.02495 16.8448 4.02991C16.8796 4.02495 16.8969 4.0175 16.8969 4.00758C16.8969 3.99766 16.8945 3.98773 16.8895 3.97781L17.2393 3.99269C17.2393 4.00758 17.2468 4.0175 17.2617 4.02247C17.2765 4.02743 17.284 4.03735 17.284 4.05224H17.2617C17.2567 4.06216 17.2542 4.07953 17.2542 4.10434C17.2542 4.14404 17.2716 4.16637 17.3063 4.17133C17.346 4.17629 17.4031 4.17877 17.4775 4.17877C17.4676 4.18374 17.4626 4.1887 17.4626 4.19366C17.4626 4.20855 17.4701 4.21599 17.485 4.21599C17.5048 4.21103 17.5147 4.22095 17.5147 4.24576V4.26809C17.5247 4.27802 17.5395 4.28546 17.5594 4.29042C17.5792 4.29539 17.5892 4.30779 17.5892 4.32764L17.7678 4.34253C17.7728 4.31275 17.7752 4.28298 17.7752 4.25321C17.7752 4.22343 17.7752 4.19366 17.7752 4.16389C17.7752 4.12419 17.7752 4.09194 17.7752 4.06713C17.7752 4.03735 17.7728 4.00758 17.7678 3.97781H17.7306V3.86616H17.7827V2.88364H18.073C18.073 2.91838 18.0755 2.93823 18.0804 2.94319H18.1027V3.0995H18.1474L18.1325 3.16649C18.1077 3.16649 18.0928 3.17889 18.0879 3.20371C18.0879 3.22852 18.0829 3.24092 18.073 3.24092C18.073 3.29054 18.0978 3.31535 18.1474 3.31535C18.1474 3.56843 18.1474 3.76939 18.1474 3.91826C18.1474 4.06713 18.1499 4.16637 18.1549 4.21599H18.1697L18.1549 4.29042C18.1499 4.34005 18.1474 4.38967 18.1474 4.43929C18.1474 4.48891 18.1474 4.54101 18.1474 4.5956C18.1474 4.64522 18.1474 4.69484 18.1474 4.74446C18.1474 4.78912 18.1499 4.83626 18.1549 4.88589H18.1697L18.1549 5.0422C18.1499 5.04716 18.1474 5.05708 18.1474 5.07197C18.1474 5.09678 18.1499 5.11415 18.1549 5.12407H18.1697L18.1549 5.22083C18.1499 5.24564 18.1474 5.28038 18.1474 5.32504C18.1474 5.38459 18.1499 5.4218 18.1549 5.43669L18.1697 6.51596ZM18.1027 3.13672V3.0995H18.0804V3.13672H18.1027ZM17.805 5.42925V5.35481H17.7827C17.7777 5.33 17.7728 5.28782 17.7678 5.22828C17.7678 5.16873 17.7678 5.08437 17.7678 4.97521H17.7306V4.84867C17.7207 4.82882 17.6958 4.8189 17.6562 4.8189C17.6165 4.81393 17.5991 4.81145 17.604 4.81145H17.5817C17.5569 4.81145 17.5445 4.80153 17.5445 4.78168V4.73702C17.5296 4.73206 17.5172 4.70973 17.5073 4.67003C17.4974 4.63033 17.4726 4.61048 17.4329 4.61048H17.4254C17.4006 4.61048 17.3758 4.60304 17.351 4.58816C17.3311 4.57327 17.3212 4.55094 17.3212 4.52117H17.284V4.43185C17.2294 4.43185 17.1773 4.42937 17.1277 4.4244C17.083 4.41944 17.0483 4.41448 17.0235 4.40952V4.39463C16.9391 4.40455 16.8225 4.43433 16.6736 4.48395C16.6736 4.52861 16.6563 4.57079 16.6215 4.61048H16.6141C16.5843 4.61048 16.5496 4.61297 16.5099 4.61793C16.4752 4.62289 16.4479 4.62537 16.428 4.62537V4.84867C16.423 4.84371 16.4181 4.84123 16.4131 4.84123C16.4032 4.84123 16.3958 4.84867 16.3908 4.86356C16.3858 4.87844 16.3759 4.88589 16.361 4.88589H16.3536C16.3883 4.94047 16.4057 5.04468 16.4057 5.1985H16.428C16.4429 5.31263 16.4503 5.4218 16.4503 5.52601C16.4503 5.63518 16.4429 5.74434 16.428 5.85351H16.4057V5.88329H16.428V5.98005C16.4528 5.98005 16.4727 5.97509 16.4876 5.96516C16.5024 5.95027 16.5223 5.94283 16.5471 5.94283C16.5521 5.94283 16.562 5.94283 16.5769 5.94283C16.5918 5.93787 16.6066 5.94035 16.6215 5.95027C16.6364 5.95524 16.6488 5.9726 16.6588 6.00238C16.6687 6.03215 16.6736 6.07681 16.6736 6.13636C16.6984 6.13139 16.7233 6.12891 16.7481 6.12891C16.7729 6.12395 16.8027 6.12147 16.8374 6.12147C16.8424 6.12147 16.8597 6.12395 16.8895 6.12891C16.9242 6.12891 16.9614 6.13139 17.0011 6.13636C17.0408 6.13636 17.0805 6.13884 17.1202 6.1438C17.1649 6.1438 17.2021 6.1438 17.2319 6.1438C17.2666 6.1438 17.2889 6.14132 17.2989 6.13636C17.3138 6.12643 17.3212 6.11899 17.3212 6.11403C17.3262 6.1041 17.3286 6.09666 17.3286 6.0917C17.3286 6.08177 17.3361 6.07681 17.351 6.07681L17.3733 5.98005H17.4329V5.9726C17.4428 5.96764 17.4577 5.9602 17.4775 5.95027C17.4974 5.94035 17.5197 5.93043 17.5445 5.9205C17.5445 5.9205 17.542 5.91802 17.5371 5.91306C17.5371 5.9081 17.5371 5.90065 17.5371 5.89073C17.5371 5.89569 17.5395 5.89321 17.5445 5.88329C17.5544 5.8684 17.5668 5.85351 17.5817 5.83863C17.6016 5.82374 17.6239 5.80885 17.6487 5.79397C17.6735 5.77908 17.7008 5.77164 17.7306 5.77164C17.7504 5.77164 17.7628 5.77412 17.7678 5.77908L17.805 5.42925ZM23.4621 6.02471H23.4398C23.4249 6.05944 23.4001 6.09914 23.3654 6.1438C23.3356 6.1835 23.2984 6.20335 23.2537 6.20335H23.2463C23.2463 6.21327 23.2438 6.22568 23.2388 6.24056C23.2388 6.25545 23.2388 6.2753 23.2388 6.30011C23.2289 6.30011 23.224 6.30011 23.224 6.30011C23.224 6.29515 23.219 6.29267 23.2091 6.29267C23.2041 6.29267 23.2016 6.30259 23.2016 6.32244C23.2016 6.34229 23.1967 6.35221 23.1867 6.35221H23.1793L23.1644 6.35966C23.1098 6.35966 23.0602 6.39191 23.0155 6.45642H22.8667C22.8667 6.46634 22.8617 6.47627 22.8518 6.48619C22.8419 6.49115 22.8369 6.50108 22.8369 6.51596C22.7525 6.49115 22.6359 6.47627 22.4871 6.4713H22.3754C22.2811 6.4713 22.2166 6.46634 22.1819 6.45642C22.1521 6.44649 22.1348 6.43409 22.1298 6.4192C22.1298 6.40431 22.1298 6.38943 22.1298 6.37454C22.1348 6.35469 22.1223 6.33733 22.0926 6.32244C22.0727 6.33733 22.0578 6.34725 22.0479 6.35221C22.043 6.35221 22.0355 6.35469 22.0256 6.35966C22.0256 6.35966 22.0206 6.34973 22.0107 6.32988C22.0008 6.31003 21.9859 6.29018 21.966 6.27034C21.9462 6.24552 21.9214 6.22568 21.8916 6.21079C21.8618 6.19094 21.8271 6.18102 21.7874 6.18102C21.7874 6.18102 21.7899 6.17854 21.7948 6.17357C21.7998 6.16861 21.8023 6.16365 21.8023 6.15869C21.8023 6.1438 21.7924 6.13636 21.7725 6.13636C21.7626 6.13636 21.7551 6.14628 21.7502 6.16613C21.7502 6.18102 21.7452 6.18846 21.7353 6.18846L21.7279 6.18102C21.7279 6.19094 21.7254 6.22071 21.7204 6.27034C21.7204 6.315 21.7204 6.37702 21.7204 6.45642H21.646V6.48619C21.6261 6.48619 21.5988 6.49115 21.5641 6.50108C21.5343 6.511 21.507 6.51596 21.4822 6.51596H21.4599C21.45 6.48619 21.4252 6.4713 21.3855 6.4713C21.3507 6.4713 21.3284 6.46634 21.3185 6.45642V6.41176C21.3185 6.34725 21.3061 6.29018 21.2813 6.24056V5.78652H21.3185C21.3185 5.76667 21.3185 5.74434 21.3185 5.71953C21.3234 5.69472 21.3259 5.66743 21.3259 5.63766C21.3259 5.60292 21.3234 5.57315 21.3185 5.54834C21.3185 5.52353 21.3185 5.49375 21.3185 5.45902H21.2813V5.07197H21.3185V4.99754C21.3185 4.95288 21.3086 4.89085 21.2887 4.81145C21.2738 4.73206 21.2664 4.67251 21.2664 4.63281C21.2664 4.61297 21.2713 4.57823 21.2813 4.52861H21.3185C21.3185 4.51372 21.3185 4.49635 21.3185 4.47651C21.3234 4.45666 21.3259 4.43433 21.3259 4.40952C21.3259 4.38471 21.3234 4.36486 21.3185 4.34997C21.3185 4.33508 21.3185 4.31772 21.3185 4.29787H21.2813V3.41956C21.3061 3.41956 21.3185 3.4146 21.3185 3.40467V3.38234C21.3185 3.37738 21.3061 3.3749 21.2813 3.3749V2.98041H21.3185V2.88364C21.3482 2.88364 21.3631 2.8762 21.3631 2.86131C21.3681 2.84643 21.3731 2.83899 21.378 2.83899C21.3879 2.83899 21.3929 2.85139 21.3929 2.8762C21.3929 2.90101 21.3979 2.91342 21.4078 2.91342C21.4276 2.91342 21.4425 2.90101 21.4525 2.8762C21.4673 2.84643 21.4946 2.83154 21.5343 2.83154C21.5343 2.85139 21.5467 2.86131 21.5715 2.86131H21.5864C21.6013 2.86131 21.6088 2.85635 21.6088 2.84643C21.6088 2.83154 21.6137 2.8241 21.6237 2.8241C21.6336 2.8241 21.6385 2.82658 21.6385 2.83154C21.6385 2.83154 21.641 2.83154 21.646 2.83154V3.31535H21.6162C21.6112 3.31535 21.6063 3.31784 21.6013 3.3228C21.6013 3.32776 21.6013 3.33024 21.6013 3.33024C21.6013 3.32032 21.6088 3.33272 21.6237 3.36746C21.6385 3.40219 21.6485 3.43941 21.6534 3.47911H21.6758V3.68008H21.6534C21.6534 3.69 21.6509 3.69992 21.646 3.70985C21.646 3.71977 21.646 3.73218 21.646 3.74706C21.646 3.76691 21.646 3.7818 21.646 3.79172C21.6509 3.80165 21.6534 3.80909 21.6534 3.81405H21.6758V3.90337H21.6534C21.6534 3.90834 21.6509 3.91578 21.646 3.9257C21.646 3.93067 21.646 3.94059 21.646 3.95548C21.646 3.9654 21.646 3.97284 21.646 3.97781C21.6509 3.97781 21.6534 3.98029 21.6534 3.98525H21.6758V4.27554C21.7006 4.27554 21.7254 4.2805 21.7502 4.29042C21.78 4.30035 21.8097 4.30531 21.8395 4.30531C21.8494 4.30531 21.8594 4.30779 21.8693 4.31275C21.8842 4.31275 21.8966 4.31027 21.9065 4.30531C21.9164 4.30035 21.9239 4.29042 21.9288 4.27554C21.9387 4.25569 21.9437 4.22592 21.9437 4.18622C22.033 4.18622 22.0876 4.17381 22.1075 4.149C22.1323 4.11923 22.1447 4.08946 22.1447 4.05968C22.1496 4.02495 22.1596 3.99517 22.1745 3.97036C22.1893 3.94059 22.234 3.9257 22.3084 3.9257C22.3432 3.9257 22.4027 3.93811 22.4871 3.96292C22.5714 3.98773 22.6359 4.00014 22.6806 4.00014C22.6905 4.00014 22.7029 4.00014 22.7178 4.00014C22.7327 4.00014 22.7451 3.99517 22.755 3.98525V4.02247C22.755 4.06713 22.7749 4.0969 22.8146 4.11179C22.8592 4.12171 22.8989 4.13908 22.9337 4.16389C22.9486 4.16389 22.9585 4.17381 22.9634 4.19366C22.9684 4.21351 22.9734 4.23584 22.9783 4.26065C22.9883 4.2805 23.0007 4.30035 23.0155 4.3202C23.0304 4.33508 23.0528 4.34253 23.0825 4.34253L23.09 4.33508V4.32764C23.09 4.31772 23.1024 4.31275 23.1272 4.31275C23.1322 4.31275 23.1396 4.32268 23.1495 4.34253C23.1644 4.35741 23.1768 4.36486 23.1867 4.36486C23.1917 4.36486 23.1967 4.36238 23.2016 4.35741V4.49139H23.3505V4.50628C23.3505 4.53605 23.3728 4.55094 23.4175 4.55094V5.22828C23.4125 5.22828 23.41 5.22828 23.41 5.22828C23.41 5.22331 23.41 5.22083 23.41 5.22083C23.3852 5.22083 23.3728 5.23324 23.3728 5.25805C23.3728 5.26301 23.3877 5.26549 23.4175 5.26549C23.4175 5.42428 23.4249 5.54834 23.4398 5.63766H23.4473C23.4572 5.63766 23.4621 5.64014 23.4621 5.6451H23.4398C23.4299 5.66495 23.4249 5.70217 23.4249 5.75675C23.4249 5.76667 23.4249 5.78156 23.4249 5.80141C23.4249 5.8163 23.4299 5.83614 23.4398 5.86096H23.4621V5.89073C23.4324 5.89073 23.4175 5.90313 23.4175 5.92795C23.4175 5.96268 23.4274 5.98005 23.4473 5.98005C23.4572 5.98005 23.4621 5.97757 23.4621 5.9726V6.02471ZM23.09 5.78652C23.09 5.77164 23.0875 5.76419 23.0825 5.76419C23.0825 5.75923 23.0825 5.75675 23.0825 5.75675H23.0676C23.0627 5.74683 23.0577 5.73442 23.0528 5.71953C23.0478 5.70465 23.0453 5.68976 23.0453 5.67487C23.0453 5.65999 23.0478 5.64758 23.0528 5.63766C23.0577 5.62277 23.0627 5.61037 23.0676 5.60044H23.09V5.54089C23.0552 5.54089 23.0379 5.53841 23.0379 5.53345C23.0379 5.52849 23.0404 5.52105 23.0453 5.51112H23.09V5.38459H23.0676C23.0627 5.32504 23.0577 5.25061 23.0528 5.16129C23.0478 5.06701 23.0453 4.95784 23.0453 4.83378H23.0304C23.0155 4.82882 23.0081 4.81145 23.0081 4.78168C23.0081 4.76183 23.0155 4.74695 23.0304 4.73702H23.0453L23.0304 4.63281C23.0205 4.63281 23.0155 4.59808 23.0155 4.52861L22.8369 4.51372V4.43929C22.7972 4.41448 22.76 4.39463 22.7253 4.37974C22.6955 4.36486 22.6607 4.35741 22.621 4.35741V4.34997C22.5814 4.34997 22.5168 4.35989 22.4275 4.37974C22.3432 4.39463 22.2737 4.40207 22.2191 4.40207L22.2117 4.41696C22.2117 4.43185 22.1869 4.43929 22.1372 4.43929C22.1372 4.51372 22.1174 4.55094 22.0777 4.55094C22.0529 4.55094 22.0305 4.54598 22.0107 4.53605C21.971 4.53605 21.9437 4.5559 21.9288 4.5956C21.9189 4.63033 21.9015 4.67747 21.8767 4.73702C21.8271 4.73702 21.7924 4.74446 21.7725 4.75935C21.7527 4.76927 21.7378 4.78416 21.7279 4.80401C21.7229 4.8189 21.7204 4.83626 21.7204 4.85611C21.7204 4.871 21.7204 4.88092 21.7204 4.88589H21.6758V5.33248H21.7204C21.7254 5.35233 21.7279 5.37714 21.7279 5.40692C21.7279 5.43669 21.7254 5.4615 21.7204 5.48135H21.6758V5.71209C21.6906 5.7369 21.7105 5.74931 21.7353 5.74931C21.7651 5.74931 21.7924 5.75179 21.8172 5.75675C21.8469 5.75675 21.8718 5.76419 21.8916 5.77908C21.9115 5.79397 21.9214 5.82622 21.9214 5.87584C21.966 5.8808 22.0305 5.91802 22.1149 5.98749C22.1149 5.99245 22.1124 5.99493 22.1075 5.99493C22.1075 5.99493 22.1075 5.99742 22.1075 6.00238C22.1075 6.02223 22.1149 6.03711 22.1298 6.04704C22.1496 6.052 22.1596 6.06192 22.1596 6.07681V6.08425C22.1645 6.08425 22.167 6.08673 22.167 6.0917C22.172 6.0917 22.1745 6.0917 22.1745 6.0917C22.1893 6.0917 22.1968 6.08425 22.1968 6.06937C22.1968 6.05448 22.2017 6.04704 22.2117 6.04704C22.2166 6.04704 22.2241 6.04952 22.234 6.05448C22.2439 6.05944 22.2489 6.06689 22.2489 6.07681L22.2414 6.08425H22.755C22.7699 6.08425 22.7823 6.07681 22.7922 6.06192C22.8022 6.04208 22.8121 6.02223 22.822 6.00238C22.8369 5.98253 22.8543 5.96516 22.8741 5.95027C22.894 5.93043 22.9188 5.9205 22.9486 5.9205C22.9783 5.92546 23.0007 5.92795 23.0155 5.92795C23.0304 5.92795 23.0404 5.92795 23.0453 5.92795C23.0453 5.89817 23.0478 5.87088 23.0528 5.84607C23.0577 5.82126 23.0627 5.80141 23.0676 5.78652H23.09ZM23.987 3.89593C23.9969 3.89593 24.0069 3.89593 24.0168 3.89593C24.0267 3.89097 24.0366 3.88849 24.0466 3.88849C24.0664 3.88849 24.0987 3.89345 24.1433 3.90337C24.1929 3.9133 24.2376 3.91826 24.2773 3.91826H24.2847V4.02247C24.2847 4.10186 24.2922 4.17133 24.3071 4.23088L24.508 4.23832V4.35741C24.4832 4.35741 24.4708 4.35989 24.4708 4.36486V4.37974C24.4659 4.38471 24.4634 4.38967 24.4634 4.39463C24.4634 4.39959 24.4634 4.40952 24.4634 4.4244C24.4683 4.43433 24.4733 4.43929 24.4783 4.43929C24.4932 4.43929 24.5031 4.43681 24.508 4.43185C24.508 4.49139 24.508 4.54598 24.508 4.5956C24.508 4.64026 24.5105 4.67747 24.5155 4.70725H24.5527V4.74446L24.7313 4.76679V4.85611H24.7686V4.93799H24.7313V5.03475V5.13896H24.7686C24.7686 5.18858 24.771 5.2258 24.776 5.25061C24.781 5.27046 24.7909 5.28534 24.8058 5.29527C24.8207 5.30023 24.843 5.30271 24.8728 5.30271C24.9025 5.30271 24.9422 5.30271 24.9919 5.30271H24.9993C25.0539 5.30271 25.0985 5.30271 25.1333 5.30271C25.168 5.30271 25.1978 5.30519 25.2226 5.31015V4.9231H25.2449C25.2548 4.90822 25.2598 4.89333 25.2598 4.87844C25.2648 4.86356 25.2722 4.85115 25.2821 4.84123C25.2921 4.82634 25.3094 4.81393 25.3342 4.80401C25.3591 4.79409 25.4012 4.78912 25.4608 4.78912L25.4831 4.51372C25.4881 4.50876 25.5005 4.50628 25.5203 4.50628C25.5402 4.50628 25.5501 4.49884 25.5501 4.48395C25.5501 4.45914 25.5427 4.44425 25.5278 4.43929C25.5129 4.42937 25.5054 4.412 25.5054 4.38719L25.4831 4.37974V4.26809H25.5501V4.23832C25.5948 4.23832 25.6245 4.23088 25.6394 4.21599C25.6593 4.19614 25.6692 4.17877 25.6692 4.16389C25.6692 4.15893 25.6667 4.15644 25.6617 4.15644C25.6617 4.15644 25.6617 4.15148 25.6617 4.14156H25.699C25.7089 4.12171 25.7138 4.09938 25.7138 4.07457C25.7138 4.04976 25.7089 4.02743 25.699 4.00758H25.6617C25.6617 4.00758 25.6593 4.0051 25.6543 4.00014C25.6543 3.99517 25.6543 3.98773 25.6543 3.97781C25.6543 3.96788 25.6642 3.95796 25.6841 3.94803C25.7089 3.93811 25.7213 3.9257 25.7213 3.91082C25.7163 3.91082 25.7138 3.90585 25.7138 3.89593H26.0414C26.0414 4.01502 26.0488 4.08449 26.0637 4.10434H26.0414V4.23088C25.9768 4.23088 25.9322 4.23584 25.9074 4.24576C25.8875 4.25569 25.8776 4.29291 25.8776 4.35741H25.8478V4.55094C25.8181 4.55094 25.8032 4.5559 25.8032 4.56583C25.8032 4.60056 25.8081 4.61793 25.8181 4.61793C25.828 4.61793 25.8379 4.61545 25.8478 4.61048V4.78168C25.8429 4.78168 25.8379 4.78168 25.8329 4.78168C25.8329 4.77672 25.8305 4.77424 25.8255 4.77424C25.8205 4.77424 25.8156 4.78416 25.8106 4.80401C25.8056 4.8189 25.7932 4.82634 25.7734 4.82634H25.766C25.7411 4.85115 25.7089 4.88092 25.6692 4.91566C25.6345 4.95039 25.6171 4.99009 25.6171 5.03475C25.6171 5.04468 25.6171 5.05708 25.6171 5.07197C25.622 5.08189 25.6245 5.09182 25.6245 5.10174H25.6617V5.15384C25.632 5.15384 25.6171 5.17121 25.6171 5.20595C25.6171 5.2258 25.6245 5.23572 25.6394 5.23572C25.6493 5.23572 25.6568 5.23324 25.6617 5.22828V5.31015C25.6617 5.30519 25.6568 5.30271 25.6469 5.30271C25.627 5.30271 25.6171 5.31512 25.6171 5.33993C25.6171 5.3697 25.627 5.38459 25.6469 5.38459C25.6568 5.38459 25.6617 5.3821 25.6617 5.37714C25.6617 5.3821 25.6617 5.38707 25.6617 5.39203C25.6667 5.39203 25.6692 5.39451 25.6692 5.39947C25.6692 5.42428 25.6593 5.44661 25.6394 5.46646C25.6245 5.48135 25.6171 5.49872 25.6171 5.51856V5.52601C25.5873 5.52601 25.5551 5.54338 25.5203 5.57811C25.4856 5.60788 25.4558 5.6451 25.431 5.68976H25.3715C25.2722 5.77908 25.2226 5.83118 25.2226 5.84607C25.2226 5.85103 25.2201 5.87088 25.2151 5.90562C25.2151 5.93539 25.2003 5.98005 25.1705 6.03959C25.1407 6.09418 25.0911 6.1438 25.0216 6.18846L24.9993 6.20335V6.56807C24.9646 6.56807 24.9472 6.57303 24.9472 6.58295C24.9472 6.59288 24.9497 6.6028 24.9546 6.61273H24.8058V6.70205C24.8008 6.70205 24.7958 6.69956 24.7909 6.6946C24.7859 6.6946 24.781 6.6946 24.776 6.6946C24.776 6.69956 24.7735 6.70205 24.7686 6.70205V6.74671C24.7686 6.75663 24.7586 6.76159 24.7388 6.76159H24.7313V6.78392C24.7313 6.79385 24.7437 6.79881 24.7686 6.79881V6.9179C24.7537 6.93279 24.7264 6.93775 24.6867 6.93279C24.647 6.92783 24.6271 6.93775 24.6271 6.96256H24.2996C24.2996 6.9576 24.2947 6.95016 24.2847 6.94023C24.2699 6.94023 24.2599 6.94023 24.255 6.94023C24.25 6.94519 24.2475 6.94767 24.2475 6.94767V6.96256H23.987V6.9179H23.9572C23.9572 6.89805 23.9548 6.88068 23.9498 6.8658C23.9498 6.85091 23.9498 6.84099 23.9498 6.83602H23.9275L23.9498 6.73182C23.9597 6.71197 23.9647 6.6946 23.9647 6.67972C23.9647 6.65987 23.9597 6.64498 23.9498 6.63506H23.9275C23.9423 6.60032 23.9622 6.57551 23.987 6.56062C24.0168 6.5507 24.0515 6.54326 24.0912 6.53829C24.1309 6.53333 24.1781 6.53085 24.2326 6.53085C24.2922 6.53085 24.3617 6.52589 24.441 6.51596V6.54574C24.446 6.52589 24.4659 6.51596 24.5006 6.51596H24.575L24.5899 6.04704C24.5899 6.03215 24.6023 6.02471 24.6271 6.02471H24.6867C24.6966 6.02471 24.7016 6.01975 24.7016 6.00982L24.7686 5.98749C24.7735 5.97757 24.776 5.96764 24.776 5.95772C24.776 5.94283 24.776 5.93043 24.776 5.9205C24.776 5.8808 24.7735 5.85103 24.7686 5.83118H24.7313V5.77164C24.6966 5.75179 24.6643 5.74186 24.6346 5.74186L24.6271 5.68976C24.6172 5.68976 24.6073 5.68232 24.5974 5.66743C24.5874 5.65254 24.5775 5.6451 24.5676 5.6451H24.5527V5.57811C24.5378 5.56322 24.5006 5.55578 24.441 5.55578V5.48879H24.4038C24.4038 5.45902 24.4014 5.43421 24.3964 5.41436C24.3964 5.39451 24.3964 5.37962 24.3964 5.3697H24.3592V4.93799H24.322V4.88589C24.322 4.86604 24.3145 4.85363 24.2996 4.84867C24.2847 4.84371 24.2426 4.84123 24.1731 4.84123C24.1731 4.81145 24.1681 4.79657 24.1582 4.79657C24.1532 4.79657 24.1483 4.80153 24.1433 4.81145C24.1433 4.69732 24.1433 4.608 24.1433 4.5435C24.1433 4.47402 24.1408 4.42688 24.1359 4.40207H24.1135C24.1135 4.41696 24.1111 4.40455 24.1061 4.36486C24.1061 4.32516 24.1011 4.30531 24.0912 4.30531C24.0813 4.30531 24.0738 4.31027 24.0689 4.3202C24.049 4.30531 24.0267 4.29291 24.0019 4.28298C23.9771 4.26809 23.9523 4.25073 23.9275 4.23088V3.89593C23.9324 3.89593 23.9349 3.89841 23.9349 3.90337C23.9448 3.90337 23.9523 3.89593 23.9572 3.88104C23.9622 3.86616 23.9696 3.85871 23.9796 3.85871C23.9796 3.85871 23.9796 3.8612 23.9796 3.86616C23.9796 3.86616 23.982 3.86616 23.987 3.86616V3.89593Z" fill="#323232"/>
<path d="M38.2136 8.20729C38.0116 8.20729 37.8442 8.11428 37.7113 7.92825C37.5838 7.7369 37.52 7.48974 37.52 7.18678C37.52 6.90507 37.5891 6.62602 37.7273 6.34964C37.8708 6.07325 38.0595 5.80749 38.2933 5.55236C38.5272 5.29723 38.7823 5.06336 39.0587 4.85075C39.3351 4.63283 39.6115 4.44414 39.8879 4.28469C40.1696 4.12523 40.4274 4.00032 40.6612 3.90997C40.8951 3.81961 41.0811 3.77443 41.2193 3.77443C41.2938 3.77443 41.3549 3.79037 41.4027 3.82226C41.4505 3.84884 41.4745 3.89934 41.4745 3.97375C41.4745 4.02158 41.4559 4.06676 41.4187 4.10928C41.424 4.10928 41.4293 4.10928 41.4346 4.10928C41.5515 4.10928 41.61 4.17838 41.61 4.31658C41.61 4.36441 41.5914 4.46274 41.5542 4.61157C41.517 4.75508 41.4745 4.9358 41.4266 5.15372C41.3788 5.37164 41.3363 5.61348 41.2991 5.87924C41.2619 6.13969 41.2433 6.40544 41.2433 6.67652C41.2433 6.90507 41.331 7.01935 41.5064 7.01935C41.703 7.01935 41.9023 6.97417 42.1043 6.88381C42.3063 6.79345 42.503 6.68449 42.6943 6.55693C42.8856 6.42405 43.061 6.29383 43.2205 6.16626C43.38 6.03338 43.5155 5.92176 43.6271 5.8314C43.7387 5.74105 43.8185 5.69587 43.8663 5.69587C43.9088 5.69587 43.946 5.70916 43.9779 5.73573C44.0098 5.76231 44.0258 5.80483 44.0258 5.8633C44.0258 5.91645 43.9726 6.01212 43.8663 6.15032C43.76 6.28851 43.6191 6.44531 43.4437 6.62071C43.2683 6.79611 43.0717 6.9662 42.8538 7.13097C42.6358 7.29574 42.4126 7.43128 42.184 7.53758C41.9555 7.64388 41.7376 7.69703 41.5303 7.69703C41.3708 7.69703 41.2247 7.6492 41.0918 7.55352C40.9642 7.45254 40.8606 7.28245 40.7808 7.04327C40.7064 6.80408 40.6692 6.47454 40.6692 6.05464V5.85532C40.4088 6.28585 40.135 6.67918 39.848 7.03529C39.5663 7.39141 39.2846 7.67577 39.0029 7.88838C38.7265 8.10099 38.4634 8.20729 38.2136 8.20729ZM41.0679 4.34847C41.0413 4.3591 41.0041 4.37504 40.9562 4.3963C40.7117 4.50792 40.4566 4.64612 40.1908 4.81089C39.9304 4.97566 39.6753 5.15903 39.4255 5.36101C39.181 5.56299 38.9604 5.77294 38.7637 5.99086C38.5671 6.20878 38.4103 6.42936 38.2933 6.6526C38.1764 6.87584 38.1179 7.09376 38.1179 7.30637C38.1179 7.37547 38.1312 7.42862 38.1578 7.46582C38.1897 7.50303 38.2428 7.52163 38.3172 7.52163C38.4236 7.52163 38.5617 7.45519 38.7318 7.32231C38.9019 7.18412 39.0879 7.0034 39.2899 6.78017C39.4972 6.55693 39.7045 6.30977 39.9118 6.0387C40.1191 5.76762 40.3158 5.49389 40.5018 5.2175C40.6931 4.94111 40.8579 4.68598 40.9961 4.45211C41.0174 4.41491 41.0413 4.38036 41.0679 4.34847ZM43.8117 8.20729C43.6097 8.20729 43.4423 8.11428 43.3094 7.92825C43.1818 7.7369 43.118 7.48974 43.118 7.18678C43.118 6.90507 43.1871 6.62602 43.3253 6.34964C43.4688 6.07325 43.6575 5.80749 43.8914 5.55236C44.1253 5.29723 44.3804 5.06336 44.6568 4.85075C44.9332 4.63283 45.2096 4.44414 45.486 4.28469C45.7677 4.12523 46.0254 4.00032 46.2593 3.90997C46.4932 3.81961 46.6792 3.77443 46.8174 3.77443C46.8918 3.77443 46.9529 3.79037 47.0008 3.82226C47.0486 3.84884 47.0725 3.89934 47.0725 3.97375C47.0725 4.02158 47.0539 4.06676 47.0167 4.10928C47.022 4.10928 47.0274 4.10928 47.0327 4.10928C47.1496 4.10928 47.2081 4.17838 47.2081 4.31658C47.2081 4.36441 47.1895 4.46274 47.1523 4.61157C47.1151 4.75508 47.0725 4.9358 47.0247 5.15372C46.9769 5.37164 46.9343 5.61348 46.8971 5.87924C46.8599 6.13969 46.8413 6.40544 46.8413 6.67652C46.8413 6.90507 46.929 7.01935 47.1044 7.01935C47.3011 7.01935 47.5004 6.97417 47.7024 6.88381C47.9044 6.79345 48.101 6.68449 48.2924 6.55693C48.4837 6.42405 48.6591 6.29383 48.8186 6.16626C48.978 6.03338 49.1136 5.92176 49.2252 5.8314C49.3368 5.74105 49.4165 5.69587 49.4644 5.69587C49.5069 5.69587 49.5441 5.70916 49.576 5.73573C49.6079 5.76231 49.6238 5.80483 49.6238 5.8633C49.6238 5.91645 49.5707 6.01212 49.4644 6.15032C49.3581 6.28851 49.2172 6.44531 49.0418 6.62071C48.8664 6.79611 48.6698 6.9662 48.4518 7.13097C48.2339 7.29574 48.0107 7.43128 47.7821 7.53758C47.5536 7.64388 47.3356 7.69703 47.1283 7.69703C46.9689 7.69703 46.8227 7.6492 46.6898 7.55352C46.5623 7.45254 46.4586 7.28245 46.3789 7.04327C46.3045 6.80408 46.2673 6.47454 46.2673 6.05464V5.85532C46.0068 6.28585 45.7331 6.67918 45.4461 7.03529C45.1644 7.39141 44.8827 7.67577 44.601 7.88838C44.3246 8.10099 44.0615 8.20729 43.8117 8.20729ZM46.6659 4.34847C46.6394 4.3591 46.6021 4.37504 46.5543 4.3963C46.3098 4.50792 46.0547 4.64612 45.7889 4.81089C45.5285 4.97566 45.2733 5.15903 45.0235 5.36101C44.779 5.56299 44.5585 5.77294 44.3618 5.99086C44.1651 6.20878 44.0083 6.42936 43.8914 6.6526C43.7745 6.87584 43.716 7.09376 43.716 7.30637C43.716 7.37547 43.7293 7.42862 43.7559 7.46582C43.7878 7.50303 43.8409 7.52163 43.9153 7.52163C44.0216 7.52163 44.1598 7.45519 44.3299 7.32231C44.5 7.18412 44.686 7.0034 44.888 6.78017C45.0953 6.55693 45.3026 6.30977 45.5099 6.0387C45.7172 5.76762 45.9138 5.49389 46.0999 5.2175C46.2912 4.94111 46.456 4.68598 46.5942 4.45211C46.6154 4.41491 46.6394 4.38036 46.6659 4.34847ZM49.441 8.03986C49.34 8.03986 49.2497 8.00266 49.1699 7.92825C49.0902 7.84852 49.0503 7.72627 49.0503 7.5615C49.0503 7.44456 49.0663 7.28245 49.0982 7.07516C49.1301 6.86255 49.1726 6.63134 49.2257 6.38153C49.2789 6.13171 49.3347 5.88456 49.3932 5.64006C49.457 5.39024 49.5207 5.16701 49.5845 4.97034C49.6483 4.77368 49.7041 4.62752 49.752 4.53184C49.7945 4.45743 49.8343 4.40959 49.8715 4.38833C49.9141 4.36707 49.9539 4.35644 49.9911 4.35644C50.0655 4.35644 50.1293 4.38036 50.1825 4.4282C50.2409 4.47603 50.2702 4.56905 50.2702 4.70724C50.2702 4.78697 50.2542 4.91985 50.2223 5.10588C50.1958 5.2866 50.1586 5.49921 50.1107 5.7437C50.0682 5.98289 50.0204 6.23004 49.9672 6.48517C49.9194 6.73499 49.8715 6.97417 49.8237 7.20272C49.7759 7.43128 49.7387 7.62262 49.7121 7.77676C49.6908 7.86181 49.6536 7.92825 49.6005 7.97608C49.5526 8.0186 49.4995 8.03986 49.441 8.03986ZM50.2223 3.63092C50.1001 3.63092 49.9832 3.59371 49.8715 3.5193C49.7652 3.44489 49.7121 3.3253 49.7121 3.16052C49.7121 3.02233 49.744 2.91071 49.8078 2.82567C49.8769 2.74062 49.9566 2.6795 50.0469 2.64229C50.1426 2.59977 50.225 2.57851 50.2941 2.57851C50.3632 2.57851 50.4403 2.59446 50.5253 2.62635C50.6157 2.65292 50.6927 2.70608 50.7565 2.7858C50.8203 2.86022 50.8522 2.97184 50.8522 3.12066C50.8522 3.22165 50.8176 3.31201 50.7485 3.39174C50.6795 3.46615 50.5944 3.52461 50.4934 3.56714C50.3977 3.60966 50.3074 3.63092 50.2223 3.63092ZM51.6787 8.15148C51.5937 8.15148 51.522 8.11693 51.4635 8.04784C51.405 7.97874 51.3758 7.88307 51.3758 7.76082C51.3758 7.67046 51.3944 7.52163 51.4316 7.31434C51.4741 7.10173 51.5193 6.85458 51.5671 6.57287C51.6203 6.29117 51.6655 5.99883 51.7027 5.69587C51.7399 5.38759 51.7585 5.09259 51.7585 4.81089C51.7585 4.67269 51.793 4.57171 51.8621 4.50792C51.9365 4.43883 52.0189 4.40428 52.1093 4.40428C52.1943 4.40428 52.2581 4.45743 52.3006 4.56373C52.3431 4.67004 52.3511 4.88264 52.3245 5.20156C52.569 4.65941 52.8375 4.22356 53.1298 3.89402C53.4274 3.55916 53.7224 3.31998 54.0148 3.17647C54.3071 3.02764 54.5702 2.95323 54.8041 2.95323C54.9582 2.95323 55.0698 2.98512 55.1389 3.04891C55.2133 3.10737 55.2506 3.17381 55.2506 3.24823C55.2506 3.34921 55.208 3.42894 55.123 3.48741C55.0433 3.54056 54.9024 3.60434 54.7004 3.67875C54.4666 3.76911 54.2513 3.87542 54.0546 3.99767C53.8633 4.1146 53.6799 4.26874 53.5045 4.46009C53.3344 4.65143 53.167 4.89593 53.0022 5.19358C52.8375 5.48592 52.6727 5.84735 52.5079 6.27788C52.3431 6.70841 52.1677 7.22664 51.9817 7.83257C51.9498 7.94951 51.9073 8.03189 51.8541 8.07973C51.8063 8.12756 51.7478 8.15148 51.6787 8.15148Z" fill="#323232"/>
<path d="M37.7512 2.1006C37.8021 2.15088 37.7826 2.16954 37.7512 2.30172C37.5476 3.15644 37.5476 3.75978 35.8173 4.23742C33.5468 4.8642 33.0184 5.15918 32.6113 5.44409C32.5349 5.51113 32.4179 5.53459 32.5604 5.09214C32.7385 4.53909 33.4255 4.18714 33.7054 4.08658C33.9853 3.98603 34.367 3.81006 33.8581 3.35755C33.3492 2.90505 32.2551 2.95533 31.2881 3.08102C30.3311 3.20544 29.2494 3.84706 29.1041 3.93326L29.0999 3.93575C28.9824 4.0054 28.9727 3.96089 29.049 3.88547C29.1253 3.81006 30.645 1.86369 33.0184 1.94977C35.3777 2.03534 36.1227 2.35199 36.6825 2.25144C36.8843 2.21518 37.3333 1.97843 37.4204 1.94977C37.4967 1.92463 37.5731 1.92463 37.5985 1.94977L37.7512 2.1006Z" fill="#323232"/>
<path d="M29.2182 8.2391C29.1673 8.18882 29.1867 8.17017 29.2182 8.03799C29.4218 7.18326 29.4218 6.57993 31.152 6.10229C33.4225 5.47551 33.951 5.18052 34.3581 4.89562C34.4344 4.82858 34.5515 4.80512 34.409 5.24756C34.2309 5.80062 33.5438 6.15257 33.2639 6.25312C32.984 6.35368 32.6024 6.52965 33.1113 6.98215C33.6202 7.43465 34.7143 7.38438 35.6812 7.25868C36.6383 7.13427 37.72 6.49265 37.8653 6.40644L37.8695 6.40396C37.987 6.3343 37.9967 6.37882 37.9204 6.45423C37.844 6.52965 36.3243 8.47601 33.951 8.38994C31.5916 8.30437 30.8467 7.98771 30.2869 8.08827C30.085 8.12452 29.636 8.36127 29.549 8.38994C29.4726 8.41508 29.3963 8.41508 29.3709 8.38994L29.2182 8.2391Z" fill="#323232"/>
</svg>
