<?xml version="1.0" standalone="no"?>
<!DOCTYPE svg PUBLIC "-//W3C//DTD SVG 20010904//EN"
 "http://www.w3.org/TR/2001/REC-SVG-20010904/DTD/svg10.dtd">
<svg version="1.0" xmlns="http://www.w3.org/2000/svg"
 width="1197.000000pt" height="1197.000000pt" viewBox="0 0 1197.000000 1197.000000"
 preserveAspectRatio="xMidYMid meet">
<metadata>
Created by potrace 1.14, written by Peter Selinger 2001-2017
</metadata>
<g transform="translate(0.000000,1197.000000) scale(0.100000,-0.100000)"
fill="#000000" stroke="none">
<path d="M5698 11955 c-1 -1 -52 -6 -113 -9 -60 -4 -130 -9 -155 -12 -25 -3
-65 -7 -90 -9 -25 -3 -79 -10 -120 -15 -41 -5 -91 -12 -110 -14 -32 -5 -232
-39 -290 -51 -109 -21 -145 -29 -215 -47 -44 -11 -90 -22 -102 -24 -93 -17
-554 -166 -692 -223 -41 -17 -79 -31 -86 -31 -7 0 -18 -7 -25 -15 -7 -9 -15
-14 -17 -11 -6 6 -172 -68 -350 -157 -166 -83 -248 -127 -452 -248 -87 -51
-426 -281 -481 -326 -8 -6 -62 -49 -120 -94 -58 -45 -107 -85 -110 -88 -3 -3
-52 -46 -110 -95 -109 -93 -488 -468 -551 -546 -20 -25 -47 -56 -60 -70 -28
-30 -202 -247 -245 -305 -16 -22 -32 -41 -36 -43 -5 -2 -8 -8 -8 -13 0 -11
-60 -92 -72 -97 -5 -2 -8 -8 -8 -13 0 -11 -42 -72 -52 -77 -5 -2 -8 -8 -8 -13
0 -4 -23 -43 -52 -86 -80 -122 -92 -141 -157 -255 -34 -58 -61 -111 -61 -116
0 -6 -4 -12 -9 -14 -5 -1 -49 -84 -98 -183 -77 -159 -102 -211 -158 -340 -74
-169 -224 -593 -241 -683 -1 -7 -9 -36 -17 -65 -40 -136 -48 -167 -63 -237 -8
-41 -18 -86 -20 -100 -3 -13 -11 -54 -19 -90 -8 -36 -17 -88 -21 -116 -3 -27
-8 -52 -10 -55 -2 -4 -6 -28 -9 -55 -3 -27 -10 -74 -15 -104 -10 -63 -17 -116
-26 -215 -4 -38 -8 -83 -10 -100 -18 -183 -24 -679 -10 -880 9 -133 15 -203
21 -245 2 -19 7 -60 10 -90 3 -30 7 -64 9 -75 2 -11 7 -47 11 -80 3 -32 8 -62
10 -65 2 -3 6 -30 10 -60 18 -144 102 -513 166 -725 40 -131 116 -358 139
-410 5 -11 21 -51 36 -90 71 -186 242 -546 323 -683 17 -29 31 -57 31 -62 0
-6 5 -10 10 -10 6 0 10 -5 10 -10 0 -31 246 -407 391 -599 52 -68 99 -131 104
-139 6 -9 19 -26 30 -38 11 -12 27 -30 35 -40 37 -46 77 -94 134 -158 33 -38
69 -78 79 -90 73 -85 405 -407 497 -482 19 -16 41 -34 48 -41 43 -41 275 -221
398 -309 118 -84 475 -314 488 -314 2 0 43 -23 92 -51 49 -28 161 -86 249
-129 204 -99 275 -130 400 -180 165 -66 519 -188 595 -205 8 -2 95 -24 192
-49 98 -25 197 -48 220 -51 23 -4 45 -8 48 -10 3 -2 21 -6 40 -9 31 -5 71 -12
175 -31 53 -9 89 -15 135 -20 25 -3 61 -7 80 -10 19 -2 60 -7 90 -10 30 -4 71
-8 90 -10 239 -28 921 -27 1145 0 17 2 57 6 90 10 33 3 69 7 80 9 11 2 45 7
76 10 31 4 67 9 80 11 13 3 39 7 59 10 40 6 72 12 112 20 15 4 40 8 56 10 43
5 336 73 417 96 39 11 81 22 94 25 14 3 28 7 33 10 5 3 18 7 31 10 29 5 237
74 357 117 97 36 123 46 197 78 24 11 50 19 58 19 8 0 15 5 15 10 0 6 6 10 14
10 28 0 388 174 554 267 52 29 98 53 103 53 5 0 9 3 9 8 0 4 9 12 20 17 17 9
100 58 216 130 18 11 43 28 56 37 12 10 55 39 93 64 60 41 117 83 280 206 48
37 276 228 325 272 82 75 404 400 465 470 33 38 67 76 75 85 8 9 39 46 68 81
58 71 61 75 112 140 19 25 38 47 42 48 5 2 8 10 8 17 0 7 4 15 8 17 30 12 320
453 437 663 118 213 247 482 319 665 41 102 51 128 66 163 58 139 204 636 234
797 2 14 12 58 20 97 17 81 26 125 31 165 2 15 6 35 9 45 2 10 7 41 11 68 3
28 7 61 10 75 7 39 13 90 20 150 3 30 8 75 10 100 32 294 38 861 11 1075 -3
17 -7 66 -10 110 -4 44 -8 91 -11 105 -2 14 -7 44 -10 68 -13 103 -16 130 -25
182 -5 30 -12 71 -15 90 -6 34 -29 154 -45 235 -57 274 -190 706 -301 970 -23
55 -47 114 -53 130 -50 122 -207 437 -295 588 -28 49 -51 93 -51 98 0 5 -4 9
-8 9 -5 0 -14 12 -21 27 -21 46 -222 348 -298 448 -5 6 -28 37 -53 70 -99 131
-233 292 -350 420 -70 77 -329 335 -401 400 -96 86 -181 159 -203 174 -12 8
-23 18 -26 21 -6 7 -103 85 -150 120 -18 14 -48 36 -65 50 -18 14 -43 32 -55
40 -13 8 -35 24 -49 35 -14 11 -33 25 -42 30 -9 6 -56 37 -105 71 -273 187
-643 386 -994 536 -343 147 -793 284 -1155 354 -11 2 -31 6 -45 9 -14 2 -38 7
-55 10 -16 2 -41 7 -55 9 -14 3 -41 8 -60 10 -19 3 -45 8 -57 10 -12 3 -48 7
-80 11 -32 3 -74 9 -93 12 -19 3 -48 6 -65 8 -53 4 -179 16 -225 21 -51 5
-716 14 -722 9z"/>
</g>
</svg>
