<svg width="60" height="17" viewBox="0 0 60 17" fill="none" xmlns="http://www.w3.org/2000/svg">
<circle cx="4.5392" cy="1.51307" r="1.51307" fill="#AD2175"/>
<circle cx="7.68641" cy="1.51307" r="1.51307" fill="#C33737"/>
<circle cx="10.8335" cy="1.51307" r="1.51307" fill="#CF2227"/>
<circle cx="13.9807" cy="1.51307" r="1.51307" fill="#D55C28"/>
<circle cx="4.5392" cy="4.84217" r="1.51307" fill="#F57E21"/>
<circle cx="7.68641" cy="4.84217" r="1.51307" fill="#F9A43F"/>
<circle cx="10.8335" cy="4.84217" r="1.51307" fill="#FCAF17"/>
<circle cx="4.5392" cy="14.8275" r="1.51307" fill="#177BC0"/>
<circle cx="7.68641" cy="14.8275" r="1.51307" fill="#1157A7"/>
<circle cx="10.8335" cy="14.8275" r="1.51307" fill="#48286F"/>
<circle cx="14.828" cy="11.4994" r="1.51307" fill="#1AA484"/>
<circle cx="17.9752" cy="11.4994" r="1.51307" fill="#0FA8D3"/>
<circle cx="21.1224" cy="11.4994" r="1.51307" fill="#2195D3"/>
<circle cx="4.5392" cy="8.17128" r="1.51307" fill="#EFDD12"/>
<circle cx="7.68641" cy="8.17128" r="1.51307" fill="#9FCC3A"/>
<circle cx="18.1569" cy="8.17128" r="1.51307" fill="#8BC43F"/>
<circle cx="21.3041" cy="8.17128" r="1.51307" fill="#60A058"/>
<circle cx="4.5392" cy="11.4994" r="1.51307" fill="#219947"/>
<circle cx="21.183" cy="14.8275" r="1.51307" fill="#882676"/>
<circle cx="21.183" cy="4.84217" r="1.51307" fill="#FCC847"/>
<rect x="15.7358" y="1.5127" width="9.98627" height="0.302614" rx="0.151307" fill="#7F8181"/>
<rect y="1.5127" width="2.72353" height="0.302614" rx="0.151307" fill="#7F8181"/>
<rect y="4.76562" width="2.72353" height="0.302614" rx="0.151307" fill="#7F8181"/>
<rect y="8.01953" width="2.72353" height="0.302614" rx="0.151307" fill="#7F8181"/>
<rect y="11.2725" width="2.72353" height="0.302614" rx="0.151307" fill="#7F8181"/>
<rect y="14.5254" width="2.72353" height="0.302614" rx="0.151307" fill="#7F8181"/>
<rect x="12.7097" y="4.8418" width="6.65752" height="0.302614" rx="0.151307" fill="#7F8181"/>
<rect x="9.38098" y="8.1709" width="6.96013" height="0.302614" rx="0.151307" fill="#7F8181"/>
<rect x="12.4071" y="14.5254" width="6.96013" height="0.302614" rx="0.151307" fill="#7F8181"/>
<rect x="6.05225" y="11.1973" width="6.96013" height="0.302614" rx="0.151307" fill="#7F8181"/>
<rect x="22.9987" y="4.8418" width="2.72353" height="0.302614" rx="0.151307" fill="#7F8181"/>
<rect x="22.9987" y="8.09473" width="2.72353" height="0.302614" rx="0.151307" fill="#7F8181"/>
<rect x="22.9987" y="11.3477" width="2.72353" height="0.302614" rx="0.151307" fill="#7F8181"/>
<rect x="22.9987" y="14.6016" width="2.72353" height="0.302614" rx="0.151307" fill="#7F8181"/>
<path d="M29.705 5.04C29.6017 5.04 29.5217 5.01167 29.465 4.955C29.4117 4.895 29.385 4.81333 29.385 4.71V1.8C29.385 1.69333 29.4133 1.61333 29.47 1.56C29.5267 1.50333 29.6067 1.475 29.71 1.475H30.915C31.3017 1.475 31.6 1.57167 31.81 1.765C32.02 1.95833 32.125 2.22833 32.125 2.575C32.125 2.92167 32.02 3.19333 31.81 3.39C31.6 3.58333 31.3017 3.68 30.915 3.68H30.025V4.71C30.025 4.81333 29.9983 4.895 29.945 4.955C29.8917 5.01167 29.8117 5.04 29.705 5.04ZM30.025 3.175H30.815C31.0417 3.175 31.2133 3.125 31.33 3.025C31.4467 2.92167 31.505 2.77167 31.505 2.575C31.505 2.37833 31.4467 2.23 31.33 2.13C31.2133 2.03 31.0417 1.98 30.815 1.98H30.025V3.175ZM33.5796 5.05C33.3263 5.05 33.1063 4.99833 32.9196 4.895C32.733 4.79167 32.588 4.645 32.4846 4.455C32.3813 4.26167 32.3296 4.035 32.3296 3.775C32.3296 3.57833 32.358 3.40333 32.4146 3.25C32.4746 3.09333 32.5596 2.96 32.6696 2.85C32.7796 2.73667 32.9113 2.65167 33.0646 2.595C33.218 2.535 33.3896 2.505 33.5796 2.505C33.833 2.505 34.053 2.55667 34.2396 2.66C34.4263 2.76333 34.5713 2.91 34.6746 3.1C34.778 3.29 34.8296 3.515 34.8296 3.775C34.8296 3.97167 34.7996 4.14833 34.7396 4.305C34.683 4.46167 34.5996 4.59667 34.4896 4.71C34.3796 4.82 34.248 4.905 34.0946 4.965C33.9413 5.02167 33.7696 5.05 33.5796 5.05ZM33.5796 4.575C33.703 4.575 33.8113 4.545 33.9046 4.485C33.998 4.425 34.0696 4.33667 34.1196 4.22C34.173 4.1 34.1996 3.95167 34.1996 3.775C34.1996 3.50833 34.143 3.31 34.0296 3.18C33.9163 3.04667 33.7663 2.98 33.5796 2.98C33.4563 2.98 33.348 3.01 33.2546 3.07C33.1613 3.12667 33.088 3.215 33.0346 3.335C32.9846 3.45167 32.9596 3.59833 32.9596 3.775C32.9596 4.03833 33.0163 4.23833 33.1296 4.375C33.243 4.50833 33.393 4.575 33.5796 4.575ZM36.2417 5.04C36.1583 5.04 36.0867 5.02 36.0267 4.98C35.9667 4.93667 35.9183 4.87 35.8817 4.78L35.1567 2.93C35.1267 2.85 35.1167 2.78 35.1267 2.72C35.14 2.65667 35.1717 2.60667 35.2217 2.57C35.2717 2.53333 35.3383 2.515 35.4217 2.515C35.495 2.515 35.555 2.53333 35.6017 2.57C35.6483 2.60333 35.6883 2.66833 35.7217 2.765L36.3267 4.43H36.2117L36.8367 2.725C36.8633 2.65167 36.8983 2.59833 36.9417 2.565C36.9883 2.53167 37.0483 2.515 37.1217 2.515C37.195 2.515 37.255 2.53333 37.3017 2.57C37.3483 2.60333 37.3833 2.655 37.4067 2.725L38.0217 4.43H37.9167L38.5267 2.75C38.56 2.66 38.6017 2.59833 38.6517 2.565C38.705 2.53167 38.7633 2.515 38.8267 2.515C38.9067 2.515 38.9683 2.535 39.0117 2.575C39.055 2.615 39.08 2.66667 39.0867 2.73C39.0933 2.79 39.0817 2.85667 39.0517 2.93L38.3317 4.78C38.2983 4.86667 38.25 4.93167 38.1867 4.975C38.1267 5.01833 38.055 5.04 37.9717 5.04C37.8883 5.04 37.815 5.01833 37.7517 4.975C37.6917 4.93167 37.645 4.86667 37.6117 4.78L36.9567 3.045H37.2417L36.6017 4.775C36.5683 4.865 36.5217 4.93167 36.4617 4.975C36.4017 5.01833 36.3283 5.04 36.2417 5.04ZM40.7155 5.05C40.4389 5.05 40.2005 4.99833 40.0005 4.895C39.8005 4.79167 39.6455 4.645 39.5355 4.455C39.4289 4.265 39.3755 4.04 39.3755 3.78C39.3755 3.52667 39.4272 3.305 39.5305 3.115C39.6372 2.925 39.7822 2.77667 39.9655 2.67C40.1522 2.56 40.3639 2.505 40.6005 2.505C40.7739 2.505 40.9289 2.53333 41.0655 2.59C41.2055 2.64667 41.3239 2.72833 41.4205 2.835C41.5205 2.94167 41.5955 3.07167 41.6455 3.225C41.6989 3.375 41.7255 3.545 41.7255 3.735C41.7255 3.795 41.7039 3.84167 41.6605 3.875C41.6205 3.905 41.5622 3.92 41.4855 3.92H39.8805V3.56H41.2855L41.2055 3.635C41.2055 3.48167 41.1822 3.35333 41.1355 3.25C41.0922 3.14667 41.0272 3.06833 40.9405 3.015C40.8572 2.95833 40.7522 2.93 40.6255 2.93C40.4855 2.93 40.3655 2.96333 40.2655 3.03C40.1689 3.09333 40.0939 3.185 40.0405 3.305C39.9905 3.42167 39.9655 3.56167 39.9655 3.725V3.76C39.9655 4.03333 40.0289 4.23833 40.1555 4.375C40.2855 4.50833 40.4755 4.575 40.7255 4.575C40.8122 4.575 40.9089 4.565 41.0155 4.545C41.1255 4.52167 41.2289 4.48333 41.3255 4.43C41.3955 4.39 41.4572 4.37333 41.5105 4.38C41.5639 4.38333 41.6055 4.40167 41.6355 4.435C41.6689 4.46833 41.6889 4.51 41.6955 4.56C41.7022 4.60667 41.6922 4.655 41.6655 4.705C41.6422 4.755 41.6005 4.79833 41.5405 4.835C41.4239 4.90833 41.2889 4.96333 41.1355 5C40.9855 5.03333 40.8455 5.05 40.7155 5.05ZM42.5405 5.04C42.4372 5.04 42.3572 5.01333 42.3005 4.96C42.2472 4.90333 42.2205 4.82333 42.2205 4.72V2.83C42.2205 2.72667 42.2472 2.64833 42.3005 2.595C42.3538 2.54167 42.4288 2.515 42.5255 2.515C42.6222 2.515 42.6972 2.54167 42.7505 2.595C42.8038 2.64833 42.8305 2.72667 42.8305 2.83V3.145H42.7805C42.8272 2.945 42.9188 2.79333 43.0555 2.69C43.1922 2.58667 43.3738 2.525 43.6005 2.505C43.6705 2.49833 43.7255 2.51667 43.7655 2.56C43.8088 2.6 43.8338 2.66333 43.8405 2.75C43.8472 2.83333 43.8272 2.90167 43.7805 2.955C43.7372 3.005 43.6705 3.035 43.5805 3.045L43.4705 3.055C43.2672 3.075 43.1138 3.13833 43.0105 3.245C42.9072 3.34833 42.8555 3.495 42.8555 3.685V4.72C42.8555 4.82333 42.8288 4.90333 42.7755 4.96C42.7222 5.01333 42.6438 5.04 42.5405 5.04ZM45.3445 5.05C45.0678 5.05 44.8295 4.99833 44.6295 4.895C44.4295 4.79167 44.2745 4.645 44.1645 4.455C44.0578 4.265 44.0045 4.04 44.0045 3.78C44.0045 3.52667 44.0561 3.305 44.1595 3.115C44.2661 2.925 44.4111 2.77667 44.5945 2.67C44.7811 2.56 44.9928 2.505 45.2295 2.505C45.4028 2.505 45.5578 2.53333 45.6945 2.59C45.8345 2.64667 45.9528 2.72833 46.0495 2.835C46.1495 2.94167 46.2245 3.07167 46.2745 3.225C46.3278 3.375 46.3545 3.545 46.3545 3.735C46.3545 3.795 46.3328 3.84167 46.2895 3.875C46.2495 3.905 46.1911 3.92 46.1145 3.92H44.5095V3.56H45.9145L45.8345 3.635C45.8345 3.48167 45.8111 3.35333 45.7645 3.25C45.7211 3.14667 45.6561 3.06833 45.5695 3.015C45.4861 2.95833 45.3811 2.93 45.2545 2.93C45.1145 2.93 44.9945 2.96333 44.8945 3.03C44.7978 3.09333 44.7228 3.185 44.6695 3.305C44.6195 3.42167 44.5945 3.56167 44.5945 3.725V3.76C44.5945 4.03333 44.6578 4.23833 44.7845 4.375C44.9145 4.50833 45.1045 4.575 45.3545 4.575C45.4411 4.575 45.5378 4.565 45.6445 4.545C45.7545 4.52167 45.8578 4.48333 45.9545 4.43C46.0245 4.39 46.0861 4.37333 46.1395 4.38C46.1928 4.38333 46.2345 4.40167 46.2645 4.435C46.2978 4.46833 46.3178 4.51 46.3245 4.56C46.3311 4.60667 46.3211 4.655 46.2945 4.705C46.2711 4.755 46.2295 4.79833 46.1695 4.835C46.0528 4.90833 45.9178 4.96333 45.7645 5C45.6145 5.03333 45.4745 5.05 45.3445 5.05ZM47.7894 5.05C47.5761 5.05 47.3877 4.99833 47.2244 4.895C47.0644 4.79167 46.9394 4.645 46.8494 4.455C46.7594 4.26167 46.7144 4.035 46.7144 3.775C46.7144 3.51167 46.7594 3.28667 46.8494 3.1C46.9394 2.91 47.0644 2.76333 47.2244 2.66C47.3877 2.55667 47.5761 2.505 47.7894 2.505C47.9927 2.505 48.1694 2.555 48.3194 2.655C48.4727 2.755 48.5761 2.88667 48.6294 3.05H48.5744V1.75C48.5744 1.64667 48.6011 1.56833 48.6544 1.515C48.7077 1.46167 48.7844 1.435 48.8844 1.435C48.9844 1.435 49.0611 1.46167 49.1144 1.515C49.1711 1.56833 49.1994 1.64667 49.1994 1.75V4.72C49.1994 4.82333 49.1727 4.90333 49.1194 4.96C49.0661 5.01333 48.9894 5.04 48.8894 5.04C48.7894 5.04 48.7127 5.01333 48.6594 4.96C48.6061 4.90333 48.5794 4.82333 48.5794 4.72V4.33L48.6344 4.48C48.5844 4.65333 48.4827 4.79167 48.3294 4.895C48.1761 4.99833 47.9961 5.05 47.7894 5.05ZM47.9644 4.575C48.0877 4.575 48.1961 4.545 48.2894 4.485C48.3827 4.425 48.4544 4.33667 48.5044 4.22C48.5577 4.1 48.5844 3.95167 48.5844 3.775C48.5844 3.50833 48.5277 3.31 48.4144 3.18C48.3011 3.04667 48.1511 2.98 47.9644 2.98C47.8411 2.98 47.7327 3.01 47.6394 3.07C47.5461 3.12667 47.4727 3.215 47.4194 3.335C47.3694 3.45167 47.3444 3.59833 47.3444 3.775C47.3444 4.03833 47.4011 4.23833 47.5144 4.375C47.6277 4.50833 47.7777 4.575 47.9644 4.575ZM51.6049 5C51.4949 5 51.4099 4.97167 51.3499 4.915C51.2932 4.855 51.2649 4.77 51.2649 4.66V1.815C51.2649 1.705 51.2932 1.62167 51.3499 1.565C51.4099 1.505 51.4949 1.475 51.6049 1.475H52.8049C53.0515 1.475 53.2615 1.51167 53.4349 1.585C53.6082 1.65833 53.7399 1.76333 53.8299 1.9C53.9232 2.03667 53.9699 2.2 53.9699 2.39C53.9699 2.60333 53.9082 2.78333 53.7849 2.93C53.6615 3.07667 53.4932 3.175 53.2799 3.225V3.15C53.5265 3.18667 53.7182 3.28 53.8549 3.43C53.9915 3.58 54.0599 3.775 54.0599 4.015C54.0599 4.32833 53.9532 4.57167 53.7399 4.745C53.5299 4.915 53.2365 5 52.8599 5H51.6049ZM51.8799 4.515H52.7799C53.0065 4.515 53.1732 4.47167 53.2799 4.385C53.3865 4.295 53.4399 4.16167 53.4399 3.985C53.4399 3.805 53.3865 3.67167 53.2799 3.585C53.1732 3.49833 53.0065 3.455 52.7799 3.455H51.8799V4.515ZM51.8799 2.97H52.6949C52.9149 2.97 53.0782 2.92833 53.1849 2.845C53.2949 2.75833 53.3499 2.63167 53.3499 2.465C53.3499 2.29833 53.2949 2.17333 53.1849 2.09C53.0782 2.00333 52.9149 1.96 52.6949 1.96H51.8799V2.97ZM55.2673 5.94C55.1939 5.94 55.1339 5.92 55.0873 5.88C55.0406 5.84333 55.0123 5.79333 55.0023 5.73C54.9956 5.66667 55.0073 5.6 55.0373 5.53L55.3773 4.775V5.035L54.4673 2.93C54.4373 2.85667 54.4273 2.78833 54.4373 2.725C54.4473 2.66167 54.4773 2.61167 54.5273 2.575C54.5806 2.535 54.6523 2.515 54.7423 2.515C54.8189 2.515 54.8806 2.53333 54.9273 2.57C54.9739 2.60333 55.0156 2.66833 55.0523 2.765L55.7273 4.45H55.5773L56.2673 2.76C56.3039 2.66667 56.3473 2.60333 56.3973 2.57C56.4473 2.53333 56.5139 2.515 56.5973 2.515C56.6706 2.515 56.7289 2.535 56.7723 2.575C56.8156 2.61167 56.8423 2.66167 56.8523 2.725C56.8623 2.785 56.8506 2.85167 56.8173 2.925L55.6023 5.7C55.5589 5.79333 55.5123 5.85667 55.4623 5.89C55.4123 5.92333 55.3473 5.94 55.2673 5.94Z" fill="#B7B7B7"/>
<path d="M35.3273 14.9602C35.0983 15.0597 34.7996 14.9801 34.6603 14.7113L33.9733 13.1781C33.3262 13.0188 32.6791 13.0089 32.0519 13.1483C31.5442 13.2478 31.0464 13.437 30.5586 13.7356C30.0608 14.0443 29.5431 14.4524 29.1648 14.8208C28.9756 15.01 28.7268 15.0697 28.5177 14.9403C28.2987 14.8009 28.3285 14.5221 28.4281 14.2932L31.574 7.46365C31.6636 7.28445 31.8329 7.17493 32.032 7.17493C32.2212 7.17493 32.4103 7.2944 32.48 7.46365L35.5762 14.2932C35.6857 14.552 35.5762 14.8407 35.3273 14.9602ZM32.022 8.86738L30.1106 12.9392C30.6382 12.6405 31.3351 12.3717 31.8926 12.2622C32.4302 12.1428 32.9778 12.1228 33.5253 12.1726L32.022 8.86738ZM42.6327 13.0089C42.5332 14.2434 41.6073 15 40.2832 15H36.8585C36.7291 15 36.5997 14.9502 36.5101 14.8606C36.4205 14.7611 36.3607 14.6416 36.3607 14.5022V7.67271C36.3607 7.39396 36.5897 7.17493 36.8585 7.17493H39.8053C41.1095 7.17493 42.0155 7.76231 42.1847 8.96693C42.3141 9.90276 41.9159 10.4802 41.448 10.8187C42.1051 11.0476 42.7223 11.8839 42.6327 13.0089ZM41.6372 12.9193C41.7367 11.9436 41.1991 11.4658 40.2235 11.4658H40.1936L39.4171 11.4757H39.4071C39.1383 11.4757 38.9193 11.2468 38.9093 10.978C38.9093 10.6992 39.1383 10.4802 39.4071 10.4802L40.1637 10.4702C40.9005 10.3906 41.2887 9.8928 41.1991 9.0864C41.1195 8.43929 40.6516 8.17049 39.8053 8.17049H37.3563V13.9945H40.2832C41.0896 13.9945 41.5675 13.656 41.6372 12.9193ZM50.2703 14.9602C50.0414 15.0597 49.7427 14.9801 49.6033 14.7113L48.9164 13.1781C48.2693 13.0188 47.6222 13.0089 46.995 13.1483C46.4872 13.2478 45.9895 13.437 45.5016 13.7356C45.0039 14.0443 44.4862 14.4524 44.1079 14.8208C43.9187 15.01 43.6698 15.0697 43.4607 14.9403C43.2417 14.8009 43.2716 14.5221 43.3711 14.2932L46.5171 7.46365C46.6067 7.28445 46.7759 7.17493 46.9751 7.17493C47.1642 7.17493 47.3534 7.2944 47.4231 7.46365L50.5192 14.2932C50.6287 14.552 50.5192 14.8407 50.2703 14.9602ZM46.9651 8.86738L45.0536 12.9392C45.5813 12.6405 46.2782 12.3717 46.8357 12.2622C47.3733 12.1428 47.9208 12.1228 48.4684 12.1726L46.9651 8.86738ZM54.6955 15.1294C54.138 15.1294 53.6004 15.0199 53.0927 14.8009C52.6148 14.5918 52.1768 14.3031 51.7984 13.9248C51.4201 13.5564 51.1314 13.1184 50.9224 12.6306C50.7033 12.1328 50.6038 11.6052 50.6038 11.0676C50.6038 10.52 50.7133 9.99236 50.9224 9.49458C51.1314 9.01671 51.4301 8.57867 51.8084 8.21031C52.1867 7.832 52.6347 7.54329 53.1225 7.33422C53.6303 7.12516 54.1679 7.01565 54.7154 7.01565C55.6114 7.01565 56.4477 7.2944 57.1446 7.832C57.3636 8.00125 57.4034 8.30987 57.2441 8.52889C57.0749 8.74791 56.7563 8.78773 56.5472 8.62844C56.0196 8.22027 55.3924 8.0112 54.7154 8.0112C54.2973 8.0112 53.8891 8.09085 53.5008 8.25013C53.1325 8.40942 52.794 8.62844 52.5053 8.91716C52.2265 9.19591 51.9976 9.52445 51.8383 9.8928C51.679 10.2612 51.5993 10.6594 51.5993 11.0676C51.5993 11.4757 51.679 11.864 51.8383 12.2423C51.9976 12.6107 52.2166 12.9392 52.5053 13.218C53.0927 13.8053 53.8692 14.1339 54.6955 14.1339C55.0639 14.1339 55.4123 14.0642 55.7508 13.9447C56.0793 13.8252 56.378 13.646 56.6468 13.427C56.8559 13.2478 57.1645 13.2777 57.3437 13.4868C57.5229 13.6958 57.493 14.0144 57.284 14.1836C56.9256 14.4823 56.5273 14.7113 56.0992 14.8706C55.6512 15.0398 55.1734 15.1294 54.6955 15.1294ZM58.8027 15C58.5339 15 58.3049 14.781 58.3049 14.5022V7.67271C58.3049 7.40391 58.5339 7.17493 58.8027 7.17493C59.0815 7.17493 59.3005 7.40391 59.3005 7.67271V14.5022C59.3005 14.781 59.0815 15 58.8027 15Z" fill="#424242"/>
</svg>
