<svg width="58" height="57" viewBox="0 0 58 57" fill="none" xmlns="http://www.w3.org/2000/svg">
<g filter="url(#filter0_d_443_10643)">
<path fill-rule="evenodd" clip-rule="evenodd" d="M29.2171 4.31226C20.186 4.31226 15.6693 4.31226 12.8649 7.11905C10.3167 9.66481 10.082 13.6188 10.0581 21.0764H7.66319C7.02803 21.0764 6.41888 21.3287 5.96975 21.7778C5.52063 22.227 5.26831 22.8361 5.26831 23.4713V25.8662C5.26831 26.238 5.35487 26.6046 5.52114 26.9372C5.68742 27.2697 5.92883 27.559 6.22626 27.7821L10.0581 30.6559C10.082 38.1136 10.3167 42.0675 12.8649 44.6133C13.4444 45.1952 14.0958 45.655 14.8478 46.0191V49.8149C14.8478 50.4501 15.1001 51.0593 15.5493 51.5084C15.9984 51.9575 16.6075 52.2098 17.2427 52.2098H20.835C21.4702 52.2098 22.0793 51.9575 22.5285 51.5084C22.9776 51.0593 23.2299 50.4501 23.2299 49.8149V47.377C24.971 47.4201 26.9515 47.4201 29.2171 47.4201C31.4826 47.4201 33.4632 47.4201 35.2043 47.377V49.8149C35.2043 50.4501 35.4566 51.0593 35.9057 51.5084C36.3549 51.9575 36.964 52.2098 37.5992 52.2098H41.1915C41.8266 52.2098 42.4358 51.9575 42.8849 51.5084C43.334 51.0593 43.5864 50.4501 43.5864 49.8149V46.0191C44.3224 45.6665 44.993 45.1911 45.5693 44.6133C48.1175 42.0675 48.3546 38.1136 48.3761 30.6559L52.2079 27.7821C52.5054 27.559 52.7468 27.2697 52.913 26.9372C53.0793 26.6046 53.1659 26.238 53.1659 25.8662V23.4713C53.1659 22.8361 52.9136 22.227 52.4644 21.7778C52.0153 21.3287 51.4062 21.0764 50.771 21.0764H48.3761C48.3522 13.6188 48.1175 9.66481 45.5693 7.11905C42.7649 4.31226 38.2482 4.31226 29.2171 4.31226ZM13.6504 22.2738C13.6504 25.6602 13.6504 27.3534 14.7041 28.4047C15.7555 29.4585 17.4487 29.4585 20.835 29.4585H37.5992C40.9855 29.4585 42.6787 29.4585 43.7301 28.4047C44.7838 27.3534 44.7838 25.6602 44.7838 22.2738V16.2866C44.7838 12.9003 44.7838 11.2071 43.7301 10.1558C42.6811 9.10201 40.9879 9.10201 37.5992 9.10201H20.835C17.4487 9.10201 15.7555 9.10201 14.7041 10.1558C13.6504 11.2047 13.6504 12.8979 13.6504 16.2866V22.2738ZM15.4465 37.8405C15.4465 37.3642 15.6358 36.9073 15.9726 36.5705C16.3095 36.2336 16.7663 36.0444 17.2427 36.0444H20.835C21.3114 36.0444 21.7682 36.2336 22.1051 36.5705C22.4419 36.9073 22.6312 37.3642 22.6312 37.8405C22.6312 38.3169 22.4419 38.7738 22.1051 39.1106C21.7682 39.4475 21.3114 39.6367 20.835 39.6367H17.2427C16.7663 39.6367 16.3095 39.4475 15.9726 39.1106C15.6358 38.7738 15.4465 38.3169 15.4465 37.8405ZM42.9876 37.8405C42.9876 37.3642 42.7984 36.9073 42.4616 36.5705C42.1247 36.2336 41.6679 36.0444 41.1915 36.0444H37.5992C37.1228 36.0444 36.6659 36.2336 36.3291 36.5705C35.9922 36.9073 35.803 37.3642 35.803 37.8405C35.803 38.3169 35.9922 38.7738 36.3291 39.1106C36.6659 39.4475 37.1228 39.6367 37.5992 39.6367H41.1915C41.6679 39.6367 42.1247 39.4475 42.4616 39.1106C42.7984 38.7738 42.9876 38.3169 42.9876 37.8405Z" fill="#BCE4FD"/>
<path d="M29.0847 2.55623L29.2171 2.55623L29.3495 2.55623C33.7527 2.55619 37.2367 2.55616 39.9623 2.92275C42.7654 3.29976 45.0282 4.09325 46.811 5.87738C48.4282 7.49329 49.2334 9.50521 49.6505 11.9618C49.9927 13.9766 50.0912 16.4071 50.1212 19.3204H50.771C51.8719 19.3204 52.9277 19.7577 53.7061 20.5361C54.4846 21.3146 54.9219 22.3704 54.9219 23.4713V25.8662C54.9219 26.5106 54.7719 27.1461 54.4837 27.7225C54.1955 28.2989 53.7771 28.8002 53.2615 29.1869L50.1284 31.5367C50.1094 34.8423 50.0276 37.5573 49.6514 39.7708C49.2338 42.2279 48.4277 44.2398 46.8104 45.8555C46.3637 46.3032 45.8714 46.7013 45.3424 47.0439V49.8149C45.3424 50.9158 44.9051 51.9716 44.1266 52.7501C43.3482 53.5285 42.2924 53.9658 41.1915 53.9658H37.5992C36.4983 53.9658 35.4425 53.5285 34.664 52.7501C33.8856 51.9716 33.4483 50.9158 33.4483 49.8149V49.1627C32.1553 49.1761 30.7526 49.1761 29.2347 49.1761H29.2171H29.1995C27.6816 49.1761 26.2789 49.1761 24.9859 49.1627V49.8149C24.9859 50.9158 24.5486 51.9716 23.7702 52.7501C22.9917 53.5285 21.9359 53.9658 20.835 53.9658H17.2427C16.1418 53.9658 15.086 53.5285 14.3076 52.7501C13.5291 51.9716 13.0918 50.9158 13.0918 49.8149V47.044C12.5634 46.7029 12.075 46.3084 11.6222 45.854C10.0057 44.2382 9.20071 42.2266 8.78365 39.7705C8.40781 37.5573 8.32596 34.8423 8.306 31.5369L5.17265 29.1869C4.65712 28.8002 4.23869 28.2989 3.95051 27.7225C3.66232 27.1461 3.51228 26.5106 3.51228 25.8662V23.4713C3.51228 22.3704 3.94961 21.3146 4.72806 20.5361C5.5065 19.7577 6.5623 19.3204 7.66319 19.3204H8.31303C8.343 16.4071 8.44151 13.9766 8.78365 11.9618C9.2008 9.50519 10.006 7.49325 11.6232 5.87733C11.6234 5.87714 11.6236 5.87696 11.6237 5.87677M29.0847 2.55623L11.6237 5.87677M29.0847 2.55623C24.6815 2.55619 21.1975 2.55616 18.4719 2.92275C15.6691 3.29971 13.4065 4.09307 11.6237 5.87677M29.0847 2.55623L11.6237 5.87677M15.9472 27.1644L15.9444 27.1616C15.7991 27.0166 15.6278 26.7633 15.5224 25.9805C15.4102 25.147 15.4064 24.0168 15.4064 22.2738V16.2866C15.4064 14.5425 15.4102 13.4117 15.5224 12.5782C15.6279 11.7952 15.799 11.5436 15.943 11.4003L15.9472 11.396C16.0923 11.2507 16.3455 11.0795 17.1283 10.974C17.9619 10.8618 19.0921 10.858 20.835 10.858H37.5992C39.3433 10.858 40.4741 10.8618 41.3076 10.974C42.0906 11.0795 42.3422 11.2506 42.4855 11.3946L42.4898 11.3989C42.6351 11.5439 42.8063 11.7972 42.9118 12.58C43.024 13.4135 43.0278 14.5437 43.0278 16.2866V22.2738C43.0278 24.0168 43.024 25.147 42.9118 25.9805C42.8063 26.7633 42.6351 27.0166 42.4898 27.1616L42.4869 27.1644C42.3419 27.3098 42.0886 27.481 41.3059 27.5864C40.4723 27.6987 39.3421 27.7024 37.5992 27.7024H20.835C19.0921 27.7024 17.9619 27.6987 17.1283 27.5864C16.3455 27.481 16.0923 27.3098 15.9472 27.1644ZM17.2026 37.8405C17.2026 37.8299 17.2068 37.8197 17.2143 37.8122C17.2219 37.8046 17.2321 37.8004 17.2427 37.8004H20.835C20.8457 37.8004 20.8559 37.8046 20.8634 37.8122C20.8709 37.8197 20.8752 37.8299 20.8752 37.8405C20.8752 37.8512 20.8709 37.8614 20.8634 37.8689C20.8559 37.8764 20.8457 37.8807 20.835 37.8807H17.2427C17.2321 37.8807 17.2218 37.8764 17.2143 37.8689C17.2068 37.8614 17.2026 37.8512 17.2026 37.8405ZM41.2199 37.8122C41.2274 37.8197 41.2316 37.8299 41.2316 37.8405C41.2316 37.8512 41.2274 37.8614 41.2199 37.8689C41.2123 37.8764 41.2021 37.8807 41.1915 37.8807H37.5992C37.5885 37.8807 37.5783 37.8764 37.5708 37.8689C37.5633 37.8614 37.559 37.8512 37.559 37.8405C37.559 37.8299 37.5633 37.8197 37.5708 37.8122C37.5783 37.8046 37.5885 37.8004 37.5992 37.8004H41.1915C41.2021 37.8004 41.2123 37.8046 41.2199 37.8122Z" stroke="#4DA9FA" stroke-width="3.51205"/>
</g>
<defs>
<filter id="filter0_d_443_10643" x="-2.24377" y="0.800293" width="62.9217" height="62.9216" filterUnits="userSpaceOnUse" color-interpolation-filters="sRGB">
<feFlood flood-opacity="0" result="BackgroundImageFix"/>
<feColorMatrix in="SourceAlpha" type="matrix" values="0 0 0 0 0 0 0 0 0 0 0 0 0 0 0 0 0 0 127 0" result="hardAlpha"/>
<feOffset dy="4"/>
<feGaussianBlur stdDeviation="2"/>
<feComposite in2="hardAlpha" operator="out"/>
<feColorMatrix type="matrix" values="0 0 0 0 0 0 0 0 0 0 0 0 0 0 0 0 0 0 0.25 0"/>
<feBlend mode="normal" in2="BackgroundImageFix" result="effect1_dropShadow_443_10643"/>
<feBlend mode="normal" in="SourceGraphic" in2="effect1_dropShadow_443_10643" result="shape"/>
</filter>
</defs>
</svg>
