<?xml version="1.0" encoding="utf-8"?>
<!-- Generator: Adobe Illustrator 25.0.0, SVG Export Plug-In . SVG Version: 6.00 Build 0)  -->
<svg version="1.1" id="Layer_1" xmlns="http://www.w3.org/2000/svg" xmlns:xlink="http://www.w3.org/1999/xlink" x="0px" y="0px"
	 viewBox="0 0 73.02 74.6" style="enable-background:new 0 0 73.02 74.6;" xml:space="preserve">
<style type="text/css">
	.st0{fill:#1F2028;}
	.st1{fill:#BABBBA;}
	.st2{fill:#FFFFFF;}
</style>
<g>
	<polygon class="st0" points="-84.45,30.49 -84.45,24.49 -54.45,8.79 -23.3,25 -23.3,30.49 	"/>
	<polyline class="st1" points="-70.55,24.87 -37.19,24.87 -53.87,15.6 -70.55,24.36 	"/>
	<rect x="-84.26" y="59.85" class="st0" width="60.77" height="5.96"/>
	<g>
		
			<rect x="-85.42" y="41.69" transform="matrix(-1.836970e-16 1 -1 -1.836970e-16 -27.6273 118.0323)" class="st0" width="25.17" height="7.02"/>
		
			<rect x="-47.5" y="41.69" transform="matrix(-1.836970e-16 1 -1 -1.836970e-16 10.2876 80.1174)" class="st0" width="25.17" height="7.02"/>
	</g>
	<g>
		<g>
			<path class="st0" d="M-65,57.79c0.02-2.64-0.28-5.25,1.02-7.66c0.7-1.28,1.65-2.3,2.89-3.06c0.37-0.23,0.58-0.2,0.9,0.11
				c3.16,3,7.63,3.43,11.26,1.09c0.51-0.33,0.98-0.72,1.41-1.14c0.29-0.29,0.49-0.27,0.8-0.08c2.51,1.5,3.7,3.81,3.92,6.63
				c0.11,1.35,0.02,2.71,0.02,4.12C-50.16,57.79-57.54,57.79-65,57.79z"/>
			<path class="st0" d="M-53.79,33.57c3.97,0.05,7.07,3.26,7.01,7.26c-0.05,3.85-3.31,6.93-7.26,6.88
				c-3.87-0.05-6.96-3.28-6.92-7.22C-60.92,36.66-57.66,33.52-53.79,33.57z"/>
		</g>
	</g>
</g>
<g>
	<polygon class="st0" points="5.94,30.23 5.94,24.23 35.94,8.53 67.09,24.75 67.09,30.23 	"/>
	<polyline class="st2" points="19.83,24.62 53.19,24.62 36.51,15.34 19.83,24.11 	"/>
	<rect x="6.13" y="59.6" class="st0" width="60.77" height="5.96"/>
	<g>
		
			<rect x="0.02" y="44.26" transform="matrix(-1.836970e-16 1 -1 -1.836970e-16 65.3198 30.2135)" class="st0" width="35.06" height="7.02"/>
		
			<rect x="37.94" y="44.26" transform="matrix(-1.836970e-16 1 -1 -1.836970e-16 103.2347 -7.7014)" class="st0" width="35.06" height="7.02"/>
	</g>
	<g>
		<g>
			<path class="st0" d="M25.39,56.43c0.02-2.64-0.28-5.25,1.02-7.66c0.7-1.28,1.65-2.3,2.89-3.06c0.37-0.23,0.58-0.2,0.9,0.11
				c3.16,3,7.63,3.43,11.26,1.09c0.51-0.33,0.98-0.72,1.41-1.14c0.29-0.29,0.49-0.27,0.8-0.08c2.51,1.5,3.7,3.81,3.92,6.63
				c0.11,1.35,0.02,2.71,0.02,4.12C40.22,56.43,32.85,56.43,25.39,56.43z"/>
			<path class="st0" d="M36.59,32.21c3.97,0.05,7.07,3.26,7.01,7.26c-0.05,3.85-3.31,6.93-7.26,6.88c-3.87-0.05-6.96-3.28-6.92-7.22
				C29.46,35.3,32.72,32.15,36.59,32.21z"/>
		</g>
	</g>
</g>
</svg>
