<svg width="69" height="21" viewBox="0 0 69 21" fill="none" xmlns="http://www.w3.org/2000/svg">
<path d="M29.7011 16.6C29.3134 16.6 28.9921 16.4215 28.737 16.0644C28.4921 15.6971 28.3697 15.2227 28.3697 14.6412C28.3697 14.1004 28.5023 13.5648 28.7676 13.0343C29.0431 12.5037 29.4053 11.9936 29.8542 11.5039C30.3031 11.0141 30.7928 10.5652 31.3233 10.1571C31.8539 9.73882 32.3844 9.37663 32.9149 9.07055C33.4557 8.76447 33.9505 8.52471 34.3994 8.35127C34.8483 8.17783 35.2054 8.0911 35.4707 8.0911C35.6135 8.0911 35.7309 8.12171 35.8227 8.18293C35.9145 8.23394 35.9604 8.33087 35.9604 8.4737C35.9604 8.56552 35.9247 8.65225 35.8533 8.73387C35.8635 8.73387 35.8737 8.73387 35.8839 8.73387C36.1083 8.73387 36.2206 8.8665 36.2206 9.13177C36.2206 9.22359 36.1849 9.41234 36.1134 9.69801C36.042 9.97348 35.9604 10.3204 35.8686 10.7387C35.7768 11.157 35.6951 11.6212 35.6237 12.1313C35.5523 12.6312 35.5166 13.1414 35.5166 13.6617C35.5166 14.1004 35.6849 14.3198 36.0216 14.3198C36.3991 14.3198 36.7817 14.2331 37.1694 14.0596C37.5571 13.8862 37.9346 13.677 38.3019 13.4322C38.6692 13.1771 39.0059 12.9271 39.312 12.6823C39.618 12.4272 39.8782 12.2129 40.0925 12.0395C40.3067 11.8661 40.4597 11.7793 40.5516 11.7793C40.6332 11.7793 40.7046 11.8048 40.7658 11.8559C40.827 11.9069 40.8576 11.9885 40.8576 12.1007C40.8576 12.2027 40.7556 12.3864 40.5516 12.6517C40.3475 12.9169 40.0771 13.2179 39.7405 13.5546C39.4038 13.8913 39.0263 14.2177 38.608 14.534C38.1897 14.8503 37.7612 15.1105 37.3225 15.3145C36.8837 15.5186 36.4654 15.6206 36.0675 15.6206C35.7615 15.6206 35.4809 15.5288 35.2258 15.3451C34.981 15.1513 34.782 14.8248 34.629 14.3657C34.4861 13.9066 34.4147 13.274 34.4147 12.468V12.0854C33.9148 12.9118 33.3894 13.6668 32.8384 14.3504C32.2977 15.034 31.757 15.5798 31.2162 15.9879C30.6857 16.396 30.1807 16.6 29.7011 16.6ZM35.1799 9.19298C35.1289 9.21339 35.0575 9.244 34.9657 9.28481C34.4963 9.49906 34.0066 9.76433 33.4965 10.0806C32.9966 10.3969 32.5068 10.7489 32.0273 11.1366C31.558 11.5243 31.1346 11.9273 30.7571 12.3456C30.3796 12.7639 30.0786 13.1873 29.8542 13.6158C29.6297 14.0443 29.5175 14.4626 29.5175 14.8707C29.5175 15.0033 29.543 15.1054 29.594 15.1768C29.6552 15.2482 29.7572 15.2839 29.9001 15.2839C30.1041 15.2839 30.3694 15.1564 30.6959 14.9013C31.0224 14.6361 31.3795 14.2892 31.7672 13.8607C32.1651 13.4322 32.563 12.9577 32.9609 12.4374C33.3588 11.9171 33.7363 11.3916 34.0933 10.8611C34.4606 10.3306 34.7769 9.84085 35.0422 9.39193C35.083 9.32051 35.1289 9.2542 35.1799 9.19298ZM40.4467 16.6C40.059 16.6 39.7376 16.4215 39.4826 16.0644C39.2377 15.6971 39.1153 15.2227 39.1153 14.6412C39.1153 14.1004 39.2479 13.5648 39.5132 13.0343C39.7886 12.5037 40.1508 11.9936 40.5997 11.5039C41.0487 11.0141 41.5384 10.5652 42.0689 10.1571C42.5995 9.73882 43.13 9.37663 43.6605 9.07055C44.2013 8.76447 44.6961 8.52471 45.145 8.35127C45.5939 8.17783 45.951 8.0911 46.2163 8.0911C46.3591 8.0911 46.4764 8.12171 46.5683 8.18293C46.6601 8.23394 46.706 8.33087 46.706 8.4737C46.706 8.56552 46.6703 8.65225 46.5989 8.73387C46.6091 8.73387 46.6193 8.73387 46.6295 8.73387C46.8539 8.73387 46.9662 8.8665 46.9662 9.13177C46.9662 9.22359 46.9304 9.41234 46.859 9.69801C46.7876 9.97348 46.706 10.3204 46.6142 10.7387C46.5223 11.157 46.4407 11.6212 46.3693 12.1313C46.2979 12.6312 46.2622 13.1414 46.2622 13.6617C46.2622 14.1004 46.4305 14.3198 46.7672 14.3198C47.1447 14.3198 47.5273 14.2331 47.915 14.0596C48.3027 13.8862 48.6802 13.677 49.0475 13.4322C49.4148 13.1771 49.7515 12.9271 50.0575 12.6823C50.3636 12.4272 50.6238 12.2129 50.838 12.0395C51.0523 11.8661 51.2053 11.7793 51.2971 11.7793C51.3788 11.7793 51.4502 11.8048 51.5114 11.8559C51.5726 11.9069 51.6032 11.9885 51.6032 12.1007C51.6032 12.2027 51.5012 12.3864 51.2971 12.6517C51.0931 12.9169 50.8227 13.2179 50.486 13.5546C50.1494 13.8913 49.7719 14.2177 49.3536 14.534C48.9353 14.8503 48.5067 15.1105 48.068 15.3145C47.6293 15.5186 47.211 15.6206 46.8131 15.6206C46.507 15.6206 46.2265 15.5288 45.9714 15.3451C45.7265 15.1513 45.5276 14.8248 45.3746 14.3657C45.2317 13.9066 45.1603 13.274 45.1603 12.468V12.0854C44.6604 12.9118 44.1349 13.6668 43.584 14.3504C43.0433 15.034 42.5025 15.5798 41.9618 15.9879C41.4313 16.396 40.9262 16.6 40.4467 16.6ZM45.9255 9.19298C45.8745 9.21339 45.8031 9.244 45.7112 9.28481C45.2419 9.49906 44.7522 9.76433 44.2421 10.0806C43.7421 10.3969 43.2524 10.7489 42.7729 11.1366C42.3036 11.5243 41.8802 11.9273 41.5027 12.3456C41.1252 12.7639 40.8242 13.1873 40.5997 13.6158C40.3753 14.0443 40.2631 14.4626 40.2631 14.8707C40.2631 15.0033 40.2886 15.1054 40.3396 15.1768C40.4008 15.2482 40.5028 15.2839 40.6457 15.2839C40.8497 15.2839 41.115 15.1564 41.4415 14.9013C41.7679 14.6361 42.125 14.2892 42.5127 13.8607C42.9106 13.4322 43.3085 12.9577 43.7064 12.4374C44.1043 11.9171 44.4818 11.3916 44.8389 10.8611C45.2062 10.3306 45.5225 9.84085 45.7878 9.39193C45.8286 9.32051 45.8745 9.2542 45.9255 9.19298ZM51.2523 16.2787C51.0585 16.2787 50.885 16.2072 50.732 16.0644C50.5789 15.9114 50.5024 15.6767 50.5024 15.3604C50.5024 15.136 50.533 14.8248 50.5942 14.4269C50.6555 14.0188 50.7371 13.575 50.8391 13.0955C50.9411 12.6159 51.0483 12.1415 51.1605 11.6722C51.2829 11.1927 51.4053 10.7642 51.5278 10.3867C51.6502 10.0092 51.7573 9.72862 51.8492 9.54497C51.9308 9.40214 52.0073 9.31031 52.0787 9.2695C52.1603 9.22869 52.2369 9.20829 52.3083 9.20829C52.4511 9.20829 52.5735 9.2542 52.6756 9.34602C52.7878 9.43784 52.8439 9.61639 52.8439 9.88166C52.8439 10.0347 52.8133 10.2898 52.7521 10.6468C52.7011 10.9937 52.6297 11.4018 52.5378 11.8712C52.4562 12.3303 52.3644 12.8047 52.2624 13.2944C52.1705 13.7739 52.0787 14.2331 51.9869 14.6718C51.8951 15.1105 51.8237 15.4778 51.7726 15.7736C51.7318 15.9369 51.6604 16.0644 51.5584 16.1562C51.4666 16.2379 51.3645 16.2787 51.2523 16.2787ZM52.7521 7.81564C52.5174 7.81564 52.293 7.74422 52.0787 7.60138C51.8747 7.45855 51.7726 7.22899 51.7726 6.91271C51.7726 6.64744 51.8339 6.43319 51.9563 6.26995C52.0889 6.1067 52.242 5.98938 52.4154 5.91796C52.599 5.83634 52.7572 5.79553 52.8898 5.79553C53.0225 5.79553 53.1704 5.82613 53.3336 5.88735C53.5071 5.93836 53.655 6.04039 53.7774 6.19343C53.8999 6.33626 53.9611 6.55052 53.9611 6.83619C53.9611 7.03004 53.8948 7.20348 53.7621 7.35652C53.6295 7.49936 53.4663 7.61158 53.2724 7.6932C53.0888 7.77482 52.9153 7.81564 52.7521 7.81564ZM55.5477 16.4929C55.3844 16.4929 55.2467 16.4266 55.1345 16.294C55.0222 16.1613 54.9661 15.9777 54.9661 15.743C54.9661 15.5696 55.0018 15.2839 55.0733 14.886C55.1549 14.4779 55.2416 14.0035 55.3334 13.4628C55.4354 12.922 55.5222 12.3609 55.5936 11.7793C55.665 11.1876 55.7007 10.6213 55.7007 10.0806C55.7007 9.81534 55.767 9.62149 55.8997 9.49906C56.0425 9.36643 56.2006 9.30011 56.3741 9.30011C56.5373 9.30011 56.6598 9.40214 56.7414 9.60619C56.823 9.81024 56.8383 10.2183 56.7873 10.8305C57.2566 9.78983 57.7718 8.95322 58.333 8.32066C58.9043 7.6779 59.4706 7.21879 60.0317 6.94332C60.5928 6.65764 61.0979 6.51481 61.5468 6.51481C61.8427 6.51481 62.0569 6.57602 62.1895 6.69845C62.3324 6.81068 62.4038 6.93821 62.4038 7.08105C62.4038 7.2749 62.3222 7.42794 62.1589 7.54017C62.0059 7.64219 61.7355 7.76462 61.3478 7.90746C60.8989 8.0809 60.4857 8.28495 60.1082 8.51961C59.7409 8.74407 59.3889 9.03994 59.0523 9.40724C58.7258 9.77453 58.4044 10.2438 58.0881 10.8152C57.7718 11.3763 57.4556 12.0701 57.1393 12.8965C56.823 13.7229 56.4863 14.7177 56.1292 15.8808C56.068 16.1052 55.9864 16.2634 55.8844 16.3552C55.7925 16.447 55.6803 16.4929 55.5477 16.4929Z" fill="white"/>
<path d="M28.813 4.23387C28.9106 4.33037 28.8734 4.36618 28.813 4.6199C28.4222 6.26056 28.4222 7.41867 25.101 8.33551C20.7427 9.53862 19.7284 10.1048 18.9469 10.6517C18.8004 10.7804 18.5757 10.8255 18.8492 9.97617C19.1911 8.91457 20.5098 8.239 21.0471 8.04598C21.5843 7.85296 22.317 7.51518 21.3401 6.6466C20.3633 5.77801 18.2631 5.87452 16.4071 6.1158C14.57 6.35461 12.4937 7.58619 12.2147 7.75168L12.2067 7.75645C11.9812 7.89015 11.9625 7.80471 12.109 7.65994C12.2555 7.51518 15.1726 3.77911 19.7284 3.94434C24.2571 4.10859 25.6871 4.71641 26.7616 4.52339C27.149 4.4538 28.0109 3.99936 28.178 3.94434C28.3245 3.89608 28.4711 3.89608 28.5199 3.94434L28.813 4.23387Z" fill="#FAC601"/>
<path d="M12.4351 16.0171C12.3374 15.9206 12.3747 15.8848 12.4351 15.6311C12.8258 13.9904 12.8258 12.8323 16.1471 11.9155C20.5054 10.7124 21.5197 10.1461 22.3012 9.59924C22.4477 9.47056 22.6724 9.42552 22.3988 10.2748C22.057 11.3364 20.7382 12.012 20.201 12.205C19.6637 12.398 18.9311 12.7358 19.9079 13.6044C20.8847 14.473 22.985 14.3765 24.8409 14.1352C26.678 13.8964 28.7543 12.6648 29.0333 12.4993L29.0414 12.4945C29.2669 12.3608 29.2856 12.4463 29.139 12.591C28.9925 12.7358 26.0754 16.4719 21.5197 16.3066C16.9909 16.1424 15.561 15.5346 14.4865 15.7276C14.099 15.7972 13.2371 16.2516 13.07 16.3066C12.9235 16.3549 12.777 16.3549 12.7281 16.3066L12.4351 16.0171Z" fill="white"/>
<path d="M31.2346 4.80566L32.0357 0.8002H33.5807C34.0651 0.8002 34.439 0.907012 34.7022 1.12064C34.9692 1.33426 35.1027 1.6299 35.1027 2.00756C35.1027 2.34707 35.0245 2.64081 34.8681 2.88876C34.7155 3.13291 34.4962 3.32173 34.2101 3.45525C33.924 3.58495 33.5845 3.6498 33.1916 3.6498H31.8869L32.2817 3.29503L31.9785 4.80566H31.2346ZM32.2646 3.38086L32.0014 3.02037H33.2202C33.5788 3.02037 33.8572 2.94026 34.0556 2.78004C34.254 2.61982 34.3531 2.38522 34.3531 2.07623C34.3531 1.85879 34.2788 1.69666 34.13 1.58985C33.985 1.48304 33.7752 1.42963 33.5006 1.42963H32.339L32.7281 1.05769L32.2646 3.38086ZM36.9903 4.84572C36.6927 4.84572 36.4314 4.79041 36.2063 4.67978C35.9851 4.56534 35.8134 4.40893 35.6914 4.21057C35.5693 4.00839 35.5082 3.77187 35.5082 3.50103C35.5082 3.1577 35.5865 2.85252 35.7429 2.58549C35.8993 2.31465 36.1129 2.10293 36.3837 1.95034C36.6584 1.79394 36.9712 1.71573 37.3222 1.71573C37.6235 1.71573 37.8848 1.77105 38.1061 1.88168C38.3311 1.98849 38.5047 2.14298 38.6268 2.34516C38.7489 2.54353 38.8099 2.78004 38.8099 3.0547C38.8099 3.39421 38.7317 3.69939 38.5753 3.97024C38.4189 4.24108 38.2034 4.45471 37.9287 4.61111C37.6578 4.76752 37.345 4.84572 36.9903 4.84572ZM37.036 4.23345C37.242 4.23345 37.4232 4.18577 37.5796 4.0904C37.736 3.99122 37.86 3.8558 37.9516 3.68413C38.0431 3.51247 38.0889 3.31411 38.0889 3.08904C38.0889 2.85252 38.0183 2.6656 37.8772 2.52827C37.736 2.39094 37.5377 2.32228 37.2821 2.32228C37.0799 2.32228 36.8987 2.37187 36.7385 2.47105C36.5821 2.56642 36.4581 2.69993 36.3666 2.8716C36.275 3.04326 36.2292 3.24163 36.2292 3.46669C36.2292 3.70702 36.2998 3.89585 36.4409 4.03318C36.5821 4.1667 36.7805 4.23345 37.036 4.23345ZM40.0166 4.80566L39.4558 1.75007H40.1081L40.5774 4.44517H40.2455L41.7733 1.75007H42.3855L42.8719 4.44517H42.54L44.0507 1.75007H44.7259L43.0207 4.80566H42.3169L41.8534 2.41955H42.0651L40.709 4.80566H40.0166ZM46.2664 4.84572C45.9612 4.84572 45.6961 4.79041 45.471 4.67978C45.246 4.56534 45.0705 4.40893 44.9446 4.21057C44.8225 4.00839 44.7615 3.77187 44.7615 3.50103C44.7615 3.15389 44.8378 2.8468 44.9904 2.57977C45.143 2.31274 45.3509 2.10293 45.6141 1.95034C45.8811 1.79394 46.1844 1.71573 46.5239 1.71573C46.81 1.71573 47.058 1.76914 47.2678 1.87595C47.4776 1.98277 47.6397 2.13726 47.7542 2.33944C47.8724 2.53781 47.9315 2.77623 47.9315 3.0547C47.9315 3.12718 47.9277 3.20157 47.9201 3.27787C47.9125 3.35416 47.901 3.42473 47.8858 3.48958H45.2937L45.3738 3.01465H47.5482L47.2563 3.17487C47.2868 2.98032 47.2735 2.81819 47.2163 2.68849C47.1591 2.55879 47.0675 2.45961 46.9416 2.39094C46.8157 2.32228 46.665 2.28794 46.4896 2.28794C46.2798 2.28794 46.0967 2.33754 45.9402 2.43672C45.7877 2.53209 45.6694 2.66942 45.5855 2.84871C45.5016 3.02419 45.4596 3.23018 45.4596 3.46669C45.4596 3.71465 45.5302 3.90539 45.6713 4.0389C45.8163 4.17242 46.0394 4.23918 46.3408 4.23918C46.5125 4.23918 46.6765 4.21247 46.8329 4.15907C46.9893 4.10185 47.119 4.02364 47.222 3.92446L47.5195 4.42228C47.3593 4.56343 47.1686 4.67024 46.9473 4.74272C46.7299 4.81139 46.5029 4.84572 46.2664 4.84572ZM48.5045 4.80566L49.1111 1.75007H49.792L49.6204 2.61982L49.5574 2.36805C49.6986 2.1201 49.8779 1.95034 50.0953 1.85879C50.3127 1.76342 50.5779 1.71573 50.8907 1.71573L50.7591 2.39666C50.7285 2.38903 50.6999 2.38522 50.6732 2.38522C50.6465 2.3814 50.616 2.3795 50.5817 2.3795C50.3032 2.3795 50.0724 2.45388 49.8893 2.60266C49.7062 2.74762 49.5841 2.98032 49.5231 3.30075L49.2198 4.80566H48.5045ZM52.6139 4.84572C52.3087 4.84572 52.0436 4.79041 51.8185 4.67978C51.5935 4.56534 51.418 4.40893 51.2921 4.21057C51.17 4.00839 51.109 3.77187 51.109 3.50103C51.109 3.15389 51.1853 2.8468 51.3379 2.57977C51.4905 2.31274 51.6984 2.10293 51.9616 1.95034C52.2286 1.79394 52.5319 1.71573 52.8714 1.71573C53.1575 1.71573 53.4055 1.76914 53.6153 1.87595C53.8251 1.98277 53.9872 2.13726 54.1016 2.33944C54.2199 2.53781 54.279 2.77623 54.279 3.0547C54.279 3.12718 54.2752 3.20157 54.2676 3.27787C54.26 3.35416 54.2485 3.42473 54.2333 3.48958H51.6411L51.7213 3.01465H53.8957L53.6038 3.17487C53.6343 2.98032 53.621 2.81819 53.5638 2.68849C53.5066 2.55879 53.415 2.45961 53.2891 2.39094C53.1632 2.32228 53.0125 2.28794 52.8371 2.28794C52.6273 2.28794 52.4441 2.33754 52.2877 2.43672C52.1352 2.53209 52.0169 2.66942 51.933 2.84871C51.8491 3.02419 51.8071 3.23018 51.8071 3.46669C51.8071 3.71465 51.8777 3.90539 52.0188 4.0389C52.1638 4.17242 52.3869 4.23918 52.6883 4.23918C52.86 4.23918 53.024 4.21247 53.1804 4.15907C53.3368 4.10185 53.4665 4.02364 53.5695 3.92446L53.867 4.42228C53.7068 4.56343 53.5161 4.67024 53.2948 4.74272C53.0774 4.81139 52.8504 4.84572 52.6139 4.84572ZM56.2311 4.84572C55.9831 4.84572 55.7561 4.79231 55.5501 4.6855C55.3441 4.57869 55.182 4.4261 55.0638 4.22773C54.9455 4.02555 54.8864 3.78332 54.8864 3.50103C54.8864 3.24163 54.9283 3.00321 55.0123 2.78577C55.1 2.56833 55.2221 2.3795 55.3785 2.21928C55.5349 2.05906 55.7161 1.93508 55.9221 1.84734C56.1319 1.7596 56.3589 1.71573 56.603 1.71573C56.8548 1.71573 57.0722 1.7596 57.2553 1.84734C57.4384 1.93508 57.5796 2.06669 57.6788 2.24217C57.7779 2.41764 57.8275 2.63508 57.8275 2.89449C57.8275 3.18059 57.7913 3.44381 57.7188 3.68413C57.6463 3.92065 57.5414 4.12664 57.4041 4.30212C57.2668 4.47378 57.0989 4.6073 56.9006 4.70267C56.706 4.79803 56.4828 4.84572 56.2311 4.84572ZM56.4142 4.23345C56.6164 4.23345 56.7957 4.18577 56.9521 4.0904C57.1123 3.99122 57.2363 3.8558 57.324 3.68413C57.4155 3.51247 57.4613 3.31411 57.4613 3.08904C57.4613 2.85252 57.3907 2.6656 57.2496 2.52827C57.1123 2.39094 56.9139 2.32228 56.6545 2.32228C56.4561 2.32228 56.2768 2.37187 56.1166 2.47105C55.9564 2.56642 55.8305 2.69993 55.739 2.8716C55.6512 3.04326 55.6074 3.24163 55.6074 3.46669C55.6074 3.70321 55.676 3.89013 55.8134 4.02746C55.9545 4.16479 56.1548 4.23345 56.4142 4.23345ZM57.1581 4.80566L57.3011 4.10757L57.4899 3.29503L57.5872 2.47677L57.9706 0.559872H58.6859L57.839 4.80566H57.1581ZM60.8196 4.80566L61.6664 0.559872H62.3817L62.004 2.45961L61.7809 3.25498L61.6664 3.97596L61.5005 4.80566H60.8196ZM62.6678 4.84572C62.416 4.84572 62.1986 4.80185 62.0155 4.71411C61.8324 4.62256 61.6912 4.48904 61.592 4.31356C61.4929 4.13809 61.4433 3.92065 61.4433 3.66125C61.4433 3.37514 61.4776 3.11383 61.5463 2.87732C61.6187 2.63699 61.7237 2.431 61.861 2.25933C62.0021 2.08386 62.17 1.95034 62.3645 1.85879C62.5629 1.76342 62.788 1.71573 63.0397 1.71573C63.2915 1.71573 63.5185 1.76914 63.7207 1.87595C63.9228 1.97895 64.0831 2.13154 64.2013 2.33372C64.3234 2.53209 64.3844 2.77241 64.3844 3.0547C64.3844 3.31411 64.3406 3.55253 64.2528 3.76997C64.1689 3.9874 64.0487 4.17623 63.8923 4.33645C63.7359 4.49667 63.5528 4.62256 63.343 4.71411C63.137 4.80185 62.9119 4.84572 62.6678 4.84572ZM62.6106 4.23345C62.8166 4.23345 62.9978 4.18577 63.1542 4.0904C63.3106 3.99122 63.4346 3.8558 63.5261 3.68413C63.6177 3.51247 63.6634 3.31411 63.6634 3.08904C63.6634 2.85252 63.5929 2.6656 63.4517 2.52827C63.3106 2.39094 63.1122 2.32228 62.8566 2.32228C62.6544 2.32228 62.4732 2.37187 62.313 2.47105C62.1566 2.56642 62.0326 2.69993 61.9411 2.8716C61.8495 3.04326 61.8038 3.24163 61.8038 3.46669C61.8038 3.70321 61.8743 3.89013 62.0155 4.02746C62.1566 4.16479 62.355 4.23345 62.6106 4.23345ZM64.9675 5.9558C64.8149 5.9558 64.6661 5.93101 64.5212 5.88142C64.3724 5.83183 64.2541 5.76698 64.1664 5.68687L64.5212 5.16616C64.586 5.22338 64.6585 5.26915 64.7386 5.30349C64.8225 5.34163 64.9179 5.36071 65.0247 5.36071C65.143 5.36071 65.2479 5.32828 65.3394 5.26343C65.4348 5.2024 65.5302 5.09558 65.6255 4.94299L65.8945 4.52528L65.9631 4.45089L67.6454 1.75007H68.3607L66.255 5.0746C66.1138 5.29586 65.9784 5.47133 65.8487 5.60103C65.719 5.73074 65.5836 5.82229 65.4424 5.8757C65.3051 5.9291 65.1468 5.9558 64.9675 5.9558ZM65.7514 4.91438L65.0018 1.75007H65.7171L66.3179 4.38795L65.7514 4.91438Z" fill="white"/>
</svg>
