<svg width="27" height="11" viewBox="0 0 27 11" fill="none" xmlns="http://www.w3.org/2000/svg">
<path d="M9.2136 8.20729C9.01162 8.20729 8.8442 8.11428 8.71132 7.92825C8.58375 7.7369 8.51997 7.48974 8.51997 7.18678C8.51997 6.90507 8.58907 6.62602 8.72726 6.34964C8.87077 6.07325 9.05946 5.80749 9.29333 5.55236C9.5272 5.29723 9.78233 5.06336 10.0587 4.85075C10.3351 4.63283 10.6115 4.44414 10.8879 4.28469C11.1696 4.12523 11.4274 4.00032 11.6612 3.90997C11.8951 3.81961 12.0811 3.77443 12.2193 3.77443C12.2938 3.77443 12.3549 3.79037 12.4027 3.82226C12.4505 3.84884 12.4745 3.89934 12.4745 3.97375C12.4745 4.02158 12.4559 4.06676 12.4187 4.10928C12.424 4.10928 12.4293 4.10928 12.4346 4.10928C12.5515 4.10928 12.61 4.17838 12.61 4.31658C12.61 4.36441 12.5914 4.46274 12.5542 4.61157C12.517 4.75508 12.4745 4.9358 12.4266 5.15372C12.3788 5.37164 12.3363 5.61348 12.2991 5.87924C12.2619 6.13969 12.2433 6.40544 12.2433 6.67652C12.2433 6.90507 12.331 7.01935 12.5064 7.01935C12.703 7.01935 12.9023 6.97417 13.1043 6.88381C13.3063 6.79345 13.503 6.68449 13.6943 6.55693C13.8856 6.42405 14.061 6.29383 14.2205 6.16626C14.38 6.03338 14.5155 5.92176 14.6271 5.8314C14.7387 5.74105 14.8185 5.69587 14.8663 5.69587C14.9088 5.69587 14.946 5.70916 14.9779 5.73573C15.0098 5.76231 15.0258 5.80483 15.0258 5.8633C15.0258 5.91645 14.9726 6.01212 14.8663 6.15032C14.76 6.28851 14.6191 6.44531 14.4437 6.62071C14.2683 6.79611 14.0717 6.9662 13.8538 7.13097C13.6358 7.29574 13.4126 7.43128 13.184 7.53758C12.9555 7.64388 12.7376 7.69703 12.5303 7.69703C12.3708 7.69703 12.2247 7.6492 12.0918 7.55352C11.9642 7.45254 11.8606 7.28245 11.7808 7.04327C11.7064 6.80408 11.6692 6.47454 11.6692 6.05464V5.85532C11.4088 6.28585 11.135 6.67918 10.848 7.03529C10.5663 7.39141 10.2846 7.67577 10.0029 7.88838C9.72652 8.10099 9.46341 8.20729 9.2136 8.20729ZM12.0679 4.34847C12.0413 4.3591 12.0041 4.37504 11.9562 4.3963C11.7117 4.50792 11.4566 4.64612 11.1908 4.81089C10.9304 4.97566 10.6753 5.15903 10.4255 5.36101C10.181 5.56299 9.96038 5.77294 9.76372 5.99086C9.56706 6.20878 9.41026 6.42936 9.29333 6.6526C9.17639 6.87584 9.11793 7.09376 9.11793 7.30637C9.11793 7.37547 9.13122 7.42862 9.15779 7.46582C9.18968 7.50303 9.24283 7.52163 9.31725 7.52163C9.42355 7.52163 9.56175 7.45519 9.73183 7.32231C9.90192 7.18412 10.0879 7.0034 10.2899 6.78017C10.4972 6.55693 10.7045 6.30977 10.9118 6.0387C11.1191 5.76762 11.3158 5.49389 11.5018 5.2175C11.6931 4.94111 11.8579 4.68598 11.9961 4.45211C12.0174 4.41491 12.0413 4.38036 12.0679 4.34847ZM14.8117 8.20729C14.6097 8.20729 14.4423 8.11428 14.3094 7.92825C14.1818 7.7369 14.118 7.48974 14.118 7.18678C14.118 6.90507 14.1871 6.62602 14.3253 6.34964C14.4688 6.07325 14.6575 5.80749 14.8914 5.55236C15.1253 5.29723 15.3804 5.06336 15.6568 4.85075C15.9332 4.63283 16.2096 4.44414 16.486 4.28469C16.7677 4.12523 17.0254 4.00032 17.2593 3.90997C17.4932 3.81961 17.6792 3.77443 17.8174 3.77443C17.8918 3.77443 17.9529 3.79037 18.0008 3.82226C18.0486 3.84884 18.0725 3.89934 18.0725 3.97375C18.0725 4.02158 18.0539 4.06676 18.0167 4.10928C18.022 4.10928 18.0274 4.10928 18.0327 4.10928C18.1496 4.10928 18.2081 4.17838 18.2081 4.31658C18.2081 4.36441 18.1895 4.46274 18.1523 4.61157C18.1151 4.75508 18.0725 4.9358 18.0247 5.15372C17.9769 5.37164 17.9343 5.61348 17.8971 5.87924C17.8599 6.13969 17.8413 6.40544 17.8413 6.67652C17.8413 6.90507 17.929 7.01935 18.1044 7.01935C18.3011 7.01935 18.5004 6.97417 18.7024 6.88381C18.9044 6.79345 19.101 6.68449 19.2924 6.55693C19.4837 6.42405 19.6591 6.29383 19.8186 6.16626C19.978 6.03338 20.1136 5.92176 20.2252 5.8314C20.3368 5.74105 20.4165 5.69587 20.4644 5.69587C20.5069 5.69587 20.5441 5.70916 20.576 5.73573C20.6079 5.76231 20.6238 5.80483 20.6238 5.8633C20.6238 5.91645 20.5707 6.01212 20.4644 6.15032C20.3581 6.28851 20.2172 6.44531 20.0418 6.62071C19.8664 6.79611 19.6698 6.9662 19.4518 7.13097C19.2339 7.29574 19.0107 7.43128 18.7821 7.53758C18.5536 7.64388 18.3356 7.69703 18.1283 7.69703C17.9689 7.69703 17.8227 7.6492 17.6898 7.55352C17.5623 7.45254 17.4586 7.28245 17.3789 7.04327C17.3045 6.80408 17.2673 6.47454 17.2673 6.05464V5.85532C17.0068 6.28585 16.7331 6.67918 16.4461 7.03529C16.1644 7.39141 15.8827 7.67577 15.601 7.88838C15.3246 8.10099 15.0615 8.20729 14.8117 8.20729ZM17.6659 4.34847C17.6394 4.3591 17.6021 4.37504 17.5543 4.3963C17.3098 4.50792 17.0547 4.64612 16.7889 4.81089C16.5285 4.97566 16.2733 5.15903 16.0235 5.36101C15.779 5.56299 15.5585 5.77294 15.3618 5.99086C15.1651 6.20878 15.0083 6.42936 14.8914 6.6526C14.7745 6.87584 14.716 7.09376 14.716 7.30637C14.716 7.37547 14.7293 7.42862 14.7559 7.46582C14.7878 7.50303 14.8409 7.52163 14.9153 7.52163C15.0216 7.52163 15.1598 7.45519 15.3299 7.32231C15.5 7.18412 15.686 7.0034 15.888 6.78017C16.0953 6.55693 16.3026 6.30977 16.5099 6.0387C16.7172 5.76762 16.9138 5.49389 17.0999 5.2175C17.2912 4.94111 17.456 4.68598 17.5942 4.45211C17.6154 4.41491 17.6394 4.38036 17.6659 4.34847ZM20.441 8.03986C20.34 8.03986 20.2497 8.00266 20.1699 7.92825C20.0902 7.84852 20.0503 7.72627 20.0503 7.5615C20.0503 7.44456 20.0663 7.28245 20.0982 7.07516C20.1301 6.86255 20.1726 6.63134 20.2257 6.38153C20.2789 6.13171 20.3347 5.88456 20.3932 5.64006C20.457 5.39024 20.5207 5.16701 20.5845 4.97034C20.6483 4.77368 20.7041 4.62752 20.752 4.53184C20.7945 4.45743 20.8343 4.40959 20.8715 4.38833C20.9141 4.36707 20.9539 4.35644 20.9911 4.35644C21.0655 4.35644 21.1293 4.38036 21.1825 4.4282C21.2409 4.47603 21.2702 4.56905 21.2702 4.70724C21.2702 4.78697 21.2542 4.91985 21.2223 5.10588C21.1958 5.2866 21.1586 5.49921 21.1107 5.7437C21.0682 5.98289 21.0204 6.23004 20.9672 6.48517C20.9194 6.73499 20.8715 6.97417 20.8237 7.20272C20.7759 7.43128 20.7387 7.62262 20.7121 7.77676C20.6908 7.86181 20.6536 7.92825 20.6005 7.97608C20.5526 8.0186 20.4995 8.03986 20.441 8.03986ZM21.2223 3.63092C21.1001 3.63092 20.9832 3.59371 20.8715 3.5193C20.7652 3.44489 20.7121 3.3253 20.7121 3.16052C20.7121 3.02233 20.744 2.91071 20.8078 2.82567C20.8769 2.74062 20.9566 2.6795 21.0469 2.64229C21.1426 2.59977 21.225 2.57851 21.2941 2.57851C21.3632 2.57851 21.4403 2.59446 21.5253 2.62635C21.6157 2.65292 21.6927 2.70608 21.7565 2.7858C21.8203 2.86022 21.8522 2.97184 21.8522 3.12066C21.8522 3.22165 21.8176 3.31201 21.7485 3.39174C21.6795 3.46615 21.5944 3.52461 21.4934 3.56714C21.3977 3.60966 21.3074 3.63092 21.2223 3.63092ZM22.6787 8.15148C22.5937 8.15148 22.522 8.11693 22.4635 8.04784C22.405 7.97874 22.3758 7.88307 22.3758 7.76082C22.3758 7.67046 22.3944 7.52163 22.4316 7.31434C22.4741 7.10173 22.5193 6.85458 22.5671 6.57287C22.6203 6.29117 22.6655 5.99883 22.7027 5.69587C22.7399 5.38759 22.7585 5.09259 22.7585 4.81089C22.7585 4.67269 22.793 4.57171 22.8621 4.50792C22.9365 4.43883 23.0189 4.40428 23.1093 4.40428C23.1943 4.40428 23.2581 4.45743 23.3006 4.56373C23.3431 4.67004 23.3511 4.88264 23.3245 5.20156C23.569 4.65941 23.8375 4.22356 24.1298 3.89402C24.4274 3.55916 24.7224 3.31998 25.0148 3.17647C25.3071 3.02764 25.5702 2.95323 25.8041 2.95323C25.9582 2.95323 26.0698 2.98512 26.1389 3.04891C26.2133 3.10737 26.2506 3.17381 26.2506 3.24823C26.2506 3.34921 26.208 3.42894 26.123 3.48741C26.0433 3.54056 25.9024 3.60434 25.7004 3.67875C25.4666 3.76911 25.2513 3.87542 25.0546 3.99767C24.8633 4.1146 24.6799 4.26874 24.5045 4.46009C24.3344 4.65143 24.167 4.89593 24.0022 5.19358C23.8375 5.48592 23.6727 5.84735 23.5079 6.27788C23.3431 6.70841 23.1677 7.22664 22.9817 7.83257C22.9498 7.94951 22.9073 8.03189 22.8541 8.07973C22.8063 8.12756 22.7478 8.15148 22.6787 8.15148Z" fill="#323232"/>
<path d="M8.75116 2.1006C8.80205 2.15088 8.78264 2.16954 8.75116 2.30172C8.54761 3.15644 8.54761 3.75978 6.81735 4.23742C4.54684 4.8642 4.0184 5.15918 3.61128 5.44409C3.53495 5.51113 3.4179 5.53459 3.56039 5.09214C3.73851 4.53909 4.42552 4.18714 4.70542 4.08658C4.98531 3.98603 5.36699 3.81006 4.85809 3.35755C4.34919 2.90505 3.25505 2.95533 2.28815 3.08102C1.3311 3.20544 0.249405 3.84706 0.104071 3.93326L0.0998784 3.93575C-0.017619 4.0054 -0.0273465 3.96089 0.0489894 3.88547C0.125323 3.81006 1.64503 1.86369 4.0184 1.94977C6.37774 2.03534 7.12269 2.35199 7.68248 2.25144C7.88431 2.21518 8.33335 1.97843 8.42038 1.94977C8.49672 1.92463 8.57305 1.92463 8.5985 1.94977L8.75116 2.1006Z" fill="#323232"/>
<path d="M0.218196 8.2391C0.167306 8.18882 0.186716 8.17017 0.218196 8.03799C0.421755 7.18326 0.421755 6.57993 2.15201 6.10229C4.42252 5.47551 4.95096 5.18052 5.35808 4.89562C5.43441 4.82858 5.55146 4.80512 5.40897 5.24756C5.23085 5.80062 4.54384 6.15257 4.26394 6.25312C3.98405 6.35368 3.60237 6.52965 4.11127 6.98215C4.62017 7.43465 5.71431 7.38438 6.68121 7.25868C7.63826 7.13427 8.71995 6.49265 8.86529 6.40644L8.86948 6.40396C8.98698 6.3343 8.99671 6.37882 8.92037 6.45423C8.84404 6.52965 7.32433 8.47601 4.95096 8.38994C2.59163 8.30437 1.84667 7.98771 1.28688 8.08827C1.08505 8.12452 0.636014 8.36127 0.548979 8.38994C0.472645 8.41508 0.39631 8.41508 0.370865 8.38994L0.218196 8.2391Z" fill="#323232"/>
</svg>
